G04 #@! TF.GenerationSoftware,KiCad,Pcbnew,7.0.10*
G04 #@! TF.CreationDate,2024-04-16T19:30:50+12:00*
G04 #@! TF.ProjectId,KiwiEFIvr1815_0.1,4b697769-4546-4497-9672-313831355f30,rev?*
G04 #@! TF.SameCoordinates,Original*
G04 #@! TF.FileFunction,Legend,Top*
G04 #@! TF.FilePolarity,Positive*
%FSLAX46Y46*%
G04 Gerber Fmt 4.6, Leading zero omitted, Abs format (unit mm)*
G04 Created by KiCad (PCBNEW 7.0.10) date 2024-04-16 19:30:50*
%MOMM*%
%LPD*%
G01*
G04 APERTURE LIST*
%ADD10C,0.150000*%
%ADD11C,0.212500*%
%ADD12C,0.120000*%
G04 APERTURE END LIST*
D10*
X111115000Y-89424557D02*
X111415000Y-90324557D01*
X111415000Y-90324557D02*
X111715000Y-89424557D01*
X112529286Y-90324557D02*
X112229286Y-89895985D01*
X112015000Y-90324557D02*
X112015000Y-89424557D01*
X112015000Y-89424557D02*
X112357857Y-89424557D01*
X112357857Y-89424557D02*
X112443572Y-89467414D01*
X112443572Y-89467414D02*
X112486429Y-89510271D01*
X112486429Y-89510271D02*
X112529286Y-89595985D01*
X112529286Y-89595985D02*
X112529286Y-89724557D01*
X112529286Y-89724557D02*
X112486429Y-89810271D01*
X112486429Y-89810271D02*
X112443572Y-89853128D01*
X112443572Y-89853128D02*
X112357857Y-89895985D01*
X112357857Y-89895985D02*
X112015000Y-89895985D01*
X113472143Y-89424557D02*
X113772143Y-90324557D01*
X113772143Y-90324557D02*
X114072143Y-89424557D01*
X114843572Y-90324557D02*
X114329286Y-90324557D01*
X114586429Y-90324557D02*
X114586429Y-89424557D01*
X114586429Y-89424557D02*
X114500715Y-89553128D01*
X114500715Y-89553128D02*
X114415000Y-89638842D01*
X114415000Y-89638842D02*
X114329286Y-89681700D01*
X115229286Y-90238842D02*
X115272143Y-90281700D01*
X115272143Y-90281700D02*
X115229286Y-90324557D01*
X115229286Y-90324557D02*
X115186429Y-90281700D01*
X115186429Y-90281700D02*
X115229286Y-90238842D01*
X115229286Y-90238842D02*
X115229286Y-90324557D01*
X115829286Y-89424557D02*
X115915000Y-89424557D01*
X115915000Y-89424557D02*
X116000714Y-89467414D01*
X116000714Y-89467414D02*
X116043572Y-89510271D01*
X116043572Y-89510271D02*
X116086429Y-89595985D01*
X116086429Y-89595985D02*
X116129286Y-89767414D01*
X116129286Y-89767414D02*
X116129286Y-89981700D01*
X116129286Y-89981700D02*
X116086429Y-90153128D01*
X116086429Y-90153128D02*
X116043572Y-90238842D01*
X116043572Y-90238842D02*
X116000714Y-90281700D01*
X116000714Y-90281700D02*
X115915000Y-90324557D01*
X115915000Y-90324557D02*
X115829286Y-90324557D01*
X115829286Y-90324557D02*
X115743572Y-90281700D01*
X115743572Y-90281700D02*
X115700714Y-90238842D01*
X115700714Y-90238842D02*
X115657857Y-90153128D01*
X115657857Y-90153128D02*
X115615000Y-89981700D01*
X115615000Y-89981700D02*
X115615000Y-89767414D01*
X115615000Y-89767414D02*
X115657857Y-89595985D01*
X115657857Y-89595985D02*
X115700714Y-89510271D01*
X115700714Y-89510271D02*
X115743572Y-89467414D01*
X115743572Y-89467414D02*
X115829286Y-89424557D01*
X113625476Y-78702819D02*
X114196904Y-78702819D01*
X113911190Y-79702819D02*
X113911190Y-78702819D01*
X114720714Y-78702819D02*
X114911190Y-78702819D01*
X114911190Y-78702819D02*
X115006428Y-78750438D01*
X115006428Y-78750438D02*
X115101666Y-78845676D01*
X115101666Y-78845676D02*
X115149285Y-79036152D01*
X115149285Y-79036152D02*
X115149285Y-79369485D01*
X115149285Y-79369485D02*
X115101666Y-79559961D01*
X115101666Y-79559961D02*
X115006428Y-79655200D01*
X115006428Y-79655200D02*
X114911190Y-79702819D01*
X114911190Y-79702819D02*
X114720714Y-79702819D01*
X114720714Y-79702819D02*
X114625476Y-79655200D01*
X114625476Y-79655200D02*
X114530238Y-79559961D01*
X114530238Y-79559961D02*
X114482619Y-79369485D01*
X114482619Y-79369485D02*
X114482619Y-79036152D01*
X114482619Y-79036152D02*
X114530238Y-78845676D01*
X114530238Y-78845676D02*
X114625476Y-78750438D01*
X114625476Y-78750438D02*
X114720714Y-78702819D01*
X115577857Y-79702819D02*
X115577857Y-78702819D01*
X115577857Y-78702819D02*
X115958809Y-78702819D01*
X115958809Y-78702819D02*
X116054047Y-78750438D01*
X116054047Y-78750438D02*
X116101666Y-78798057D01*
X116101666Y-78798057D02*
X116149285Y-78893295D01*
X116149285Y-78893295D02*
X116149285Y-79036152D01*
X116149285Y-79036152D02*
X116101666Y-79131390D01*
X116101666Y-79131390D02*
X116054047Y-79179009D01*
X116054047Y-79179009D02*
X115958809Y-79226628D01*
X115958809Y-79226628D02*
X115577857Y-79226628D01*
D11*
X125583332Y-96101569D02*
X125583332Y-95101569D01*
X126069047Y-96101569D02*
X125704761Y-95530140D01*
X126069047Y-95101569D02*
X125583332Y-95672997D01*
X126433332Y-96101569D02*
X126433332Y-95101569D01*
X126757142Y-95101569D02*
X126959523Y-96101569D01*
X126959523Y-96101569D02*
X127121428Y-95387283D01*
X127121428Y-95387283D02*
X127283333Y-96101569D01*
X127283333Y-96101569D02*
X127485714Y-95101569D01*
X127809523Y-96101569D02*
X127809523Y-95101569D01*
X128214285Y-95577759D02*
X128497619Y-95577759D01*
X128619047Y-96101569D02*
X128214285Y-96101569D01*
X128214285Y-96101569D02*
X128214285Y-95101569D01*
X128214285Y-95101569D02*
X128619047Y-95101569D01*
X129266667Y-95577759D02*
X128983333Y-95577759D01*
X128983333Y-96101569D02*
X128983333Y-95101569D01*
X128983333Y-95101569D02*
X129388095Y-95101569D01*
X129711904Y-96101569D02*
X129711904Y-95101569D01*
X130116666Y-96006330D02*
X130157143Y-96053950D01*
X130157143Y-96053950D02*
X130116666Y-96101569D01*
X130116666Y-96101569D02*
X130076190Y-96053950D01*
X130076190Y-96053950D02*
X130116666Y-96006330D01*
X130116666Y-96006330D02*
X130116666Y-96101569D01*
X130521428Y-96101569D02*
X130521428Y-95101569D01*
X130521428Y-95101569D02*
X131007143Y-96101569D01*
X131007143Y-96101569D02*
X131007143Y-95101569D01*
X131330952Y-95101569D02*
X131897619Y-95101569D01*
X131897619Y-95101569D02*
X131330952Y-96101569D01*
X131330952Y-96101569D02*
X131897619Y-96101569D01*
D10*
X122094666Y-82766819D02*
X122094666Y-83481104D01*
X122094666Y-83481104D02*
X122047047Y-83623961D01*
X122047047Y-83623961D02*
X121951809Y-83719200D01*
X121951809Y-83719200D02*
X121808952Y-83766819D01*
X121808952Y-83766819D02*
X121713714Y-83766819D01*
X123094666Y-83766819D02*
X122523238Y-83766819D01*
X122808952Y-83766819D02*
X122808952Y-82766819D01*
X122808952Y-82766819D02*
X122713714Y-82909676D01*
X122713714Y-82909676D02*
X122618476Y-83004914D01*
X122618476Y-83004914D02*
X122523238Y-83052533D01*
X132598333Y-92518033D02*
X132365000Y-92184700D01*
X132198333Y-92518033D02*
X132198333Y-91818033D01*
X132198333Y-91818033D02*
X132465000Y-91818033D01*
X132465000Y-91818033D02*
X132531667Y-91851366D01*
X132531667Y-91851366D02*
X132565000Y-91884700D01*
X132565000Y-91884700D02*
X132598333Y-91951366D01*
X132598333Y-91951366D02*
X132598333Y-92051366D01*
X132598333Y-92051366D02*
X132565000Y-92118033D01*
X132565000Y-92118033D02*
X132531667Y-92151366D01*
X132531667Y-92151366D02*
X132465000Y-92184700D01*
X132465000Y-92184700D02*
X132198333Y-92184700D01*
X133198333Y-91818033D02*
X133065000Y-91818033D01*
X133065000Y-91818033D02*
X132998333Y-91851366D01*
X132998333Y-91851366D02*
X132965000Y-91884700D01*
X132965000Y-91884700D02*
X132898333Y-91984700D01*
X132898333Y-91984700D02*
X132865000Y-92118033D01*
X132865000Y-92118033D02*
X132865000Y-92384700D01*
X132865000Y-92384700D02*
X132898333Y-92451366D01*
X132898333Y-92451366D02*
X132931667Y-92484700D01*
X132931667Y-92484700D02*
X132998333Y-92518033D01*
X132998333Y-92518033D02*
X133131667Y-92518033D01*
X133131667Y-92518033D02*
X133198333Y-92484700D01*
X133198333Y-92484700D02*
X133231667Y-92451366D01*
X133231667Y-92451366D02*
X133265000Y-92384700D01*
X133265000Y-92384700D02*
X133265000Y-92218033D01*
X133265000Y-92218033D02*
X133231667Y-92151366D01*
X133231667Y-92151366D02*
X133198333Y-92118033D01*
X133198333Y-92118033D02*
X133131667Y-92084700D01*
X133131667Y-92084700D02*
X132998333Y-92084700D01*
X132998333Y-92084700D02*
X132931667Y-92118033D01*
X132931667Y-92118033D02*
X132898333Y-92151366D01*
X132898333Y-92151366D02*
X132865000Y-92218033D01*
X135138333Y-87565033D02*
X134905000Y-87231700D01*
X134738333Y-87565033D02*
X134738333Y-86865033D01*
X134738333Y-86865033D02*
X135005000Y-86865033D01*
X135005000Y-86865033D02*
X135071667Y-86898366D01*
X135071667Y-86898366D02*
X135105000Y-86931700D01*
X135105000Y-86931700D02*
X135138333Y-86998366D01*
X135138333Y-86998366D02*
X135138333Y-87098366D01*
X135138333Y-87098366D02*
X135105000Y-87165033D01*
X135105000Y-87165033D02*
X135071667Y-87198366D01*
X135071667Y-87198366D02*
X135005000Y-87231700D01*
X135005000Y-87231700D02*
X134738333Y-87231700D01*
X135771667Y-86865033D02*
X135438333Y-86865033D01*
X135438333Y-86865033D02*
X135405000Y-87198366D01*
X135405000Y-87198366D02*
X135438333Y-87165033D01*
X135438333Y-87165033D02*
X135505000Y-87131700D01*
X135505000Y-87131700D02*
X135671667Y-87131700D01*
X135671667Y-87131700D02*
X135738333Y-87165033D01*
X135738333Y-87165033D02*
X135771667Y-87198366D01*
X135771667Y-87198366D02*
X135805000Y-87265033D01*
X135805000Y-87265033D02*
X135805000Y-87431700D01*
X135805000Y-87431700D02*
X135771667Y-87498366D01*
X135771667Y-87498366D02*
X135738333Y-87531700D01*
X135738333Y-87531700D02*
X135671667Y-87565033D01*
X135671667Y-87565033D02*
X135505000Y-87565033D01*
X135505000Y-87565033D02*
X135438333Y-87531700D01*
X135438333Y-87531700D02*
X135405000Y-87498366D01*
X134738333Y-97471033D02*
X134738333Y-96771033D01*
X134738333Y-96771033D02*
X134905000Y-96771033D01*
X134905000Y-96771033D02*
X135005000Y-96804366D01*
X135005000Y-96804366D02*
X135071667Y-96871033D01*
X135071667Y-96871033D02*
X135105000Y-96937700D01*
X135105000Y-96937700D02*
X135138333Y-97071033D01*
X135138333Y-97071033D02*
X135138333Y-97171033D01*
X135138333Y-97171033D02*
X135105000Y-97304366D01*
X135105000Y-97304366D02*
X135071667Y-97371033D01*
X135071667Y-97371033D02*
X135005000Y-97437700D01*
X135005000Y-97437700D02*
X134905000Y-97471033D01*
X134905000Y-97471033D02*
X134738333Y-97471033D01*
X135405000Y-96837700D02*
X135438333Y-96804366D01*
X135438333Y-96804366D02*
X135505000Y-96771033D01*
X135505000Y-96771033D02*
X135671667Y-96771033D01*
X135671667Y-96771033D02*
X135738333Y-96804366D01*
X135738333Y-96804366D02*
X135771667Y-96837700D01*
X135771667Y-96837700D02*
X135805000Y-96904366D01*
X135805000Y-96904366D02*
X135805000Y-96971033D01*
X135805000Y-96971033D02*
X135771667Y-97071033D01*
X135771667Y-97071033D02*
X135371667Y-97471033D01*
X135371667Y-97471033D02*
X135805000Y-97471033D01*
X134865333Y-92391033D02*
X134865333Y-91691033D01*
X134865333Y-91691033D02*
X135032000Y-91691033D01*
X135032000Y-91691033D02*
X135132000Y-91724366D01*
X135132000Y-91724366D02*
X135198667Y-91791033D01*
X135198667Y-91791033D02*
X135232000Y-91857700D01*
X135232000Y-91857700D02*
X135265333Y-91991033D01*
X135265333Y-91991033D02*
X135265333Y-92091033D01*
X135265333Y-92091033D02*
X135232000Y-92224366D01*
X135232000Y-92224366D02*
X135198667Y-92291033D01*
X135198667Y-92291033D02*
X135132000Y-92357700D01*
X135132000Y-92357700D02*
X135032000Y-92391033D01*
X135032000Y-92391033D02*
X134865333Y-92391033D01*
X135932000Y-92391033D02*
X135532000Y-92391033D01*
X135732000Y-92391033D02*
X135732000Y-91691033D01*
X135732000Y-91691033D02*
X135665333Y-91791033D01*
X135665333Y-91791033D02*
X135598667Y-91857700D01*
X135598667Y-91857700D02*
X135532000Y-91891033D01*
X126233366Y-76951666D02*
X126266700Y-76984999D01*
X126266700Y-76984999D02*
X126300033Y-77084999D01*
X126300033Y-77084999D02*
X126300033Y-77151666D01*
X126300033Y-77151666D02*
X126266700Y-77251666D01*
X126266700Y-77251666D02*
X126200033Y-77318333D01*
X126200033Y-77318333D02*
X126133366Y-77351666D01*
X126133366Y-77351666D02*
X126000033Y-77384999D01*
X126000033Y-77384999D02*
X125900033Y-77384999D01*
X125900033Y-77384999D02*
X125766700Y-77351666D01*
X125766700Y-77351666D02*
X125700033Y-77318333D01*
X125700033Y-77318333D02*
X125633366Y-77251666D01*
X125633366Y-77251666D02*
X125600033Y-77151666D01*
X125600033Y-77151666D02*
X125600033Y-77084999D01*
X125600033Y-77084999D02*
X125633366Y-76984999D01*
X125633366Y-76984999D02*
X125666700Y-76951666D01*
X126300033Y-76618333D02*
X126300033Y-76484999D01*
X126300033Y-76484999D02*
X126266700Y-76418333D01*
X126266700Y-76418333D02*
X126233366Y-76384999D01*
X126233366Y-76384999D02*
X126133366Y-76318333D01*
X126133366Y-76318333D02*
X126000033Y-76284999D01*
X126000033Y-76284999D02*
X125733366Y-76284999D01*
X125733366Y-76284999D02*
X125666700Y-76318333D01*
X125666700Y-76318333D02*
X125633366Y-76351666D01*
X125633366Y-76351666D02*
X125600033Y-76418333D01*
X125600033Y-76418333D02*
X125600033Y-76551666D01*
X125600033Y-76551666D02*
X125633366Y-76618333D01*
X125633366Y-76618333D02*
X125666700Y-76651666D01*
X125666700Y-76651666D02*
X125733366Y-76684999D01*
X125733366Y-76684999D02*
X125900033Y-76684999D01*
X125900033Y-76684999D02*
X125966700Y-76651666D01*
X125966700Y-76651666D02*
X126000033Y-76618333D01*
X126000033Y-76618333D02*
X126033366Y-76551666D01*
X126033366Y-76551666D02*
X126033366Y-76418333D01*
X126033366Y-76418333D02*
X126000033Y-76351666D01*
X126000033Y-76351666D02*
X125966700Y-76318333D01*
X125966700Y-76318333D02*
X125900033Y-76284999D01*
X113411095Y-90894819D02*
X113411095Y-91704342D01*
X113411095Y-91704342D02*
X113458714Y-91799580D01*
X113458714Y-91799580D02*
X113506333Y-91847200D01*
X113506333Y-91847200D02*
X113601571Y-91894819D01*
X113601571Y-91894819D02*
X113792047Y-91894819D01*
X113792047Y-91894819D02*
X113887285Y-91847200D01*
X113887285Y-91847200D02*
X113934904Y-91799580D01*
X113934904Y-91799580D02*
X113982523Y-91704342D01*
X113982523Y-91704342D02*
X113982523Y-90894819D01*
X114363476Y-90894819D02*
X114982523Y-90894819D01*
X114982523Y-90894819D02*
X114649190Y-91275771D01*
X114649190Y-91275771D02*
X114792047Y-91275771D01*
X114792047Y-91275771D02*
X114887285Y-91323390D01*
X114887285Y-91323390D02*
X114934904Y-91371009D01*
X114934904Y-91371009D02*
X114982523Y-91466247D01*
X114982523Y-91466247D02*
X114982523Y-91704342D01*
X114982523Y-91704342D02*
X114934904Y-91799580D01*
X114934904Y-91799580D02*
X114887285Y-91847200D01*
X114887285Y-91847200D02*
X114792047Y-91894819D01*
X114792047Y-91894819D02*
X114506333Y-91894819D01*
X114506333Y-91894819D02*
X114411095Y-91847200D01*
X114411095Y-91847200D02*
X114363476Y-91799580D01*
X133096095Y-77305819D02*
X133096095Y-78115342D01*
X133096095Y-78115342D02*
X133143714Y-78210580D01*
X133143714Y-78210580D02*
X133191333Y-78258200D01*
X133191333Y-78258200D02*
X133286571Y-78305819D01*
X133286571Y-78305819D02*
X133477047Y-78305819D01*
X133477047Y-78305819D02*
X133572285Y-78258200D01*
X133572285Y-78258200D02*
X133619904Y-78210580D01*
X133619904Y-78210580D02*
X133667523Y-78115342D01*
X133667523Y-78115342D02*
X133667523Y-77305819D01*
X134096095Y-77401057D02*
X134143714Y-77353438D01*
X134143714Y-77353438D02*
X134238952Y-77305819D01*
X134238952Y-77305819D02*
X134477047Y-77305819D01*
X134477047Y-77305819D02*
X134572285Y-77353438D01*
X134572285Y-77353438D02*
X134619904Y-77401057D01*
X134619904Y-77401057D02*
X134667523Y-77496295D01*
X134667523Y-77496295D02*
X134667523Y-77591533D01*
X134667523Y-77591533D02*
X134619904Y-77734390D01*
X134619904Y-77734390D02*
X134048476Y-78305819D01*
X134048476Y-78305819D02*
X134667523Y-78305819D01*
X114173095Y-75781819D02*
X114173095Y-76591342D01*
X114173095Y-76591342D02*
X114220714Y-76686580D01*
X114220714Y-76686580D02*
X114268333Y-76734200D01*
X114268333Y-76734200D02*
X114363571Y-76781819D01*
X114363571Y-76781819D02*
X114554047Y-76781819D01*
X114554047Y-76781819D02*
X114649285Y-76734200D01*
X114649285Y-76734200D02*
X114696904Y-76686580D01*
X114696904Y-76686580D02*
X114744523Y-76591342D01*
X114744523Y-76591342D02*
X114744523Y-75781819D01*
X115744523Y-76781819D02*
X115173095Y-76781819D01*
X115458809Y-76781819D02*
X115458809Y-75781819D01*
X115458809Y-75781819D02*
X115363571Y-75924676D01*
X115363571Y-75924676D02*
X115268333Y-76019914D01*
X115268333Y-76019914D02*
X115173095Y-76067533D01*
X130359999Y-85406033D02*
X130126666Y-85072700D01*
X129959999Y-85406033D02*
X129959999Y-84706033D01*
X129959999Y-84706033D02*
X130226666Y-84706033D01*
X130226666Y-84706033D02*
X130293333Y-84739366D01*
X130293333Y-84739366D02*
X130326666Y-84772700D01*
X130326666Y-84772700D02*
X130359999Y-84839366D01*
X130359999Y-84839366D02*
X130359999Y-84939366D01*
X130359999Y-84939366D02*
X130326666Y-85006033D01*
X130326666Y-85006033D02*
X130293333Y-85039366D01*
X130293333Y-85039366D02*
X130226666Y-85072700D01*
X130226666Y-85072700D02*
X129959999Y-85072700D01*
X131026666Y-85406033D02*
X130626666Y-85406033D01*
X130826666Y-85406033D02*
X130826666Y-84706033D01*
X130826666Y-84706033D02*
X130759999Y-84806033D01*
X130759999Y-84806033D02*
X130693333Y-84872700D01*
X130693333Y-84872700D02*
X130626666Y-84906033D01*
X131626666Y-84939366D02*
X131626666Y-85406033D01*
X131460000Y-84672700D02*
X131293333Y-85172700D01*
X131293333Y-85172700D02*
X131726666Y-85172700D01*
X126300033Y-81984000D02*
X125966700Y-82217333D01*
X126300033Y-82384000D02*
X125600033Y-82384000D01*
X125600033Y-82384000D02*
X125600033Y-82117333D01*
X125600033Y-82117333D02*
X125633366Y-82050667D01*
X125633366Y-82050667D02*
X125666700Y-82017333D01*
X125666700Y-82017333D02*
X125733366Y-81984000D01*
X125733366Y-81984000D02*
X125833366Y-81984000D01*
X125833366Y-81984000D02*
X125900033Y-82017333D01*
X125900033Y-82017333D02*
X125933366Y-82050667D01*
X125933366Y-82050667D02*
X125966700Y-82117333D01*
X125966700Y-82117333D02*
X125966700Y-82384000D01*
X126300033Y-81317333D02*
X126300033Y-81717333D01*
X126300033Y-81517333D02*
X125600033Y-81517333D01*
X125600033Y-81517333D02*
X125700033Y-81584000D01*
X125700033Y-81584000D02*
X125766700Y-81650667D01*
X125766700Y-81650667D02*
X125800033Y-81717333D01*
X125600033Y-81084000D02*
X125600033Y-80650666D01*
X125600033Y-80650666D02*
X125866700Y-80884000D01*
X125866700Y-80884000D02*
X125866700Y-80784000D01*
X125866700Y-80784000D02*
X125900033Y-80717333D01*
X125900033Y-80717333D02*
X125933366Y-80684000D01*
X125933366Y-80684000D02*
X126000033Y-80650666D01*
X126000033Y-80650666D02*
X126166700Y-80650666D01*
X126166700Y-80650666D02*
X126233366Y-80684000D01*
X126233366Y-80684000D02*
X126266700Y-80717333D01*
X126266700Y-80717333D02*
X126300033Y-80784000D01*
X126300033Y-80784000D02*
X126300033Y-80984000D01*
X126300033Y-80984000D02*
X126266700Y-81050666D01*
X126266700Y-81050666D02*
X126233366Y-81084000D01*
X113849999Y-85787033D02*
X113616666Y-85453700D01*
X113449999Y-85787033D02*
X113449999Y-85087033D01*
X113449999Y-85087033D02*
X113716666Y-85087033D01*
X113716666Y-85087033D02*
X113783333Y-85120366D01*
X113783333Y-85120366D02*
X113816666Y-85153700D01*
X113816666Y-85153700D02*
X113849999Y-85220366D01*
X113849999Y-85220366D02*
X113849999Y-85320366D01*
X113849999Y-85320366D02*
X113816666Y-85387033D01*
X113816666Y-85387033D02*
X113783333Y-85420366D01*
X113783333Y-85420366D02*
X113716666Y-85453700D01*
X113716666Y-85453700D02*
X113449999Y-85453700D01*
X114516666Y-85787033D02*
X114116666Y-85787033D01*
X114316666Y-85787033D02*
X114316666Y-85087033D01*
X114316666Y-85087033D02*
X114249999Y-85187033D01*
X114249999Y-85187033D02*
X114183333Y-85253700D01*
X114183333Y-85253700D02*
X114116666Y-85287033D01*
X114783333Y-85153700D02*
X114816666Y-85120366D01*
X114816666Y-85120366D02*
X114883333Y-85087033D01*
X114883333Y-85087033D02*
X115050000Y-85087033D01*
X115050000Y-85087033D02*
X115116666Y-85120366D01*
X115116666Y-85120366D02*
X115150000Y-85153700D01*
X115150000Y-85153700D02*
X115183333Y-85220366D01*
X115183333Y-85220366D02*
X115183333Y-85287033D01*
X115183333Y-85287033D02*
X115150000Y-85387033D01*
X115150000Y-85387033D02*
X114750000Y-85787033D01*
X114750000Y-85787033D02*
X115183333Y-85787033D01*
X126422999Y-85533033D02*
X126189666Y-85199700D01*
X126022999Y-85533033D02*
X126022999Y-84833033D01*
X126022999Y-84833033D02*
X126289666Y-84833033D01*
X126289666Y-84833033D02*
X126356333Y-84866366D01*
X126356333Y-84866366D02*
X126389666Y-84899700D01*
X126389666Y-84899700D02*
X126422999Y-84966366D01*
X126422999Y-84966366D02*
X126422999Y-85066366D01*
X126422999Y-85066366D02*
X126389666Y-85133033D01*
X126389666Y-85133033D02*
X126356333Y-85166366D01*
X126356333Y-85166366D02*
X126289666Y-85199700D01*
X126289666Y-85199700D02*
X126022999Y-85199700D01*
X127089666Y-85533033D02*
X126689666Y-85533033D01*
X126889666Y-85533033D02*
X126889666Y-84833033D01*
X126889666Y-84833033D02*
X126822999Y-84933033D01*
X126822999Y-84933033D02*
X126756333Y-84999700D01*
X126756333Y-84999700D02*
X126689666Y-85033033D01*
X127756333Y-85533033D02*
X127356333Y-85533033D01*
X127556333Y-85533033D02*
X127556333Y-84833033D01*
X127556333Y-84833033D02*
X127489666Y-84933033D01*
X127489666Y-84933033D02*
X127423000Y-84999700D01*
X127423000Y-84999700D02*
X127356333Y-85033033D01*
X129583333Y-99884033D02*
X129350000Y-99550700D01*
X129183333Y-99884033D02*
X129183333Y-99184033D01*
X129183333Y-99184033D02*
X129450000Y-99184033D01*
X129450000Y-99184033D02*
X129516667Y-99217366D01*
X129516667Y-99217366D02*
X129550000Y-99250700D01*
X129550000Y-99250700D02*
X129583333Y-99317366D01*
X129583333Y-99317366D02*
X129583333Y-99417366D01*
X129583333Y-99417366D02*
X129550000Y-99484033D01*
X129550000Y-99484033D02*
X129516667Y-99517366D01*
X129516667Y-99517366D02*
X129450000Y-99550700D01*
X129450000Y-99550700D02*
X129183333Y-99550700D01*
X130183333Y-99417366D02*
X130183333Y-99884033D01*
X130016667Y-99150700D02*
X129850000Y-99650700D01*
X129850000Y-99650700D02*
X130283333Y-99650700D01*
X124343333Y-96201033D02*
X124110000Y-95867700D01*
X123943333Y-96201033D02*
X123943333Y-95501033D01*
X123943333Y-95501033D02*
X124210000Y-95501033D01*
X124210000Y-95501033D02*
X124276667Y-95534366D01*
X124276667Y-95534366D02*
X124310000Y-95567700D01*
X124310000Y-95567700D02*
X124343333Y-95634366D01*
X124343333Y-95634366D02*
X124343333Y-95734366D01*
X124343333Y-95734366D02*
X124310000Y-95801033D01*
X124310000Y-95801033D02*
X124276667Y-95834366D01*
X124276667Y-95834366D02*
X124210000Y-95867700D01*
X124210000Y-95867700D02*
X123943333Y-95867700D01*
X124576667Y-95501033D02*
X125010000Y-95501033D01*
X125010000Y-95501033D02*
X124776667Y-95767700D01*
X124776667Y-95767700D02*
X124876667Y-95767700D01*
X124876667Y-95767700D02*
X124943333Y-95801033D01*
X124943333Y-95801033D02*
X124976667Y-95834366D01*
X124976667Y-95834366D02*
X125010000Y-95901033D01*
X125010000Y-95901033D02*
X125010000Y-96067700D01*
X125010000Y-96067700D02*
X124976667Y-96134366D01*
X124976667Y-96134366D02*
X124943333Y-96167700D01*
X124943333Y-96167700D02*
X124876667Y-96201033D01*
X124876667Y-96201033D02*
X124676667Y-96201033D01*
X124676667Y-96201033D02*
X124610000Y-96167700D01*
X124610000Y-96167700D02*
X124576667Y-96134366D01*
X118120333Y-85660033D02*
X117887000Y-85326700D01*
X117720333Y-85660033D02*
X117720333Y-84960033D01*
X117720333Y-84960033D02*
X117987000Y-84960033D01*
X117987000Y-84960033D02*
X118053667Y-84993366D01*
X118053667Y-84993366D02*
X118087000Y-85026700D01*
X118087000Y-85026700D02*
X118120333Y-85093366D01*
X118120333Y-85093366D02*
X118120333Y-85193366D01*
X118120333Y-85193366D02*
X118087000Y-85260033D01*
X118087000Y-85260033D02*
X118053667Y-85293366D01*
X118053667Y-85293366D02*
X117987000Y-85326700D01*
X117987000Y-85326700D02*
X117720333Y-85326700D01*
X118387000Y-85026700D02*
X118420333Y-84993366D01*
X118420333Y-84993366D02*
X118487000Y-84960033D01*
X118487000Y-84960033D02*
X118653667Y-84960033D01*
X118653667Y-84960033D02*
X118720333Y-84993366D01*
X118720333Y-84993366D02*
X118753667Y-85026700D01*
X118753667Y-85026700D02*
X118787000Y-85093366D01*
X118787000Y-85093366D02*
X118787000Y-85160033D01*
X118787000Y-85160033D02*
X118753667Y-85260033D01*
X118753667Y-85260033D02*
X118353667Y-85660033D01*
X118353667Y-85660033D02*
X118787000Y-85660033D01*
X124343333Y-92899033D02*
X124110000Y-92565700D01*
X123943333Y-92899033D02*
X123943333Y-92199033D01*
X123943333Y-92199033D02*
X124210000Y-92199033D01*
X124210000Y-92199033D02*
X124276667Y-92232366D01*
X124276667Y-92232366D02*
X124310000Y-92265700D01*
X124310000Y-92265700D02*
X124343333Y-92332366D01*
X124343333Y-92332366D02*
X124343333Y-92432366D01*
X124343333Y-92432366D02*
X124310000Y-92499033D01*
X124310000Y-92499033D02*
X124276667Y-92532366D01*
X124276667Y-92532366D02*
X124210000Y-92565700D01*
X124210000Y-92565700D02*
X123943333Y-92565700D01*
X125010000Y-92899033D02*
X124610000Y-92899033D01*
X124810000Y-92899033D02*
X124810000Y-92199033D01*
X124810000Y-92199033D02*
X124743333Y-92299033D01*
X124743333Y-92299033D02*
X124676667Y-92365700D01*
X124676667Y-92365700D02*
X124610000Y-92399033D01*
X121788366Y-82238000D02*
X121821700Y-82271333D01*
X121821700Y-82271333D02*
X121855033Y-82371333D01*
X121855033Y-82371333D02*
X121855033Y-82438000D01*
X121855033Y-82438000D02*
X121821700Y-82538000D01*
X121821700Y-82538000D02*
X121755033Y-82604667D01*
X121755033Y-82604667D02*
X121688366Y-82638000D01*
X121688366Y-82638000D02*
X121555033Y-82671333D01*
X121555033Y-82671333D02*
X121455033Y-82671333D01*
X121455033Y-82671333D02*
X121321700Y-82638000D01*
X121321700Y-82638000D02*
X121255033Y-82604667D01*
X121255033Y-82604667D02*
X121188366Y-82538000D01*
X121188366Y-82538000D02*
X121155033Y-82438000D01*
X121155033Y-82438000D02*
X121155033Y-82371333D01*
X121155033Y-82371333D02*
X121188366Y-82271333D01*
X121188366Y-82271333D02*
X121221700Y-82238000D01*
X121855033Y-81571333D02*
X121855033Y-81971333D01*
X121855033Y-81771333D02*
X121155033Y-81771333D01*
X121155033Y-81771333D02*
X121255033Y-81838000D01*
X121255033Y-81838000D02*
X121321700Y-81904667D01*
X121321700Y-81904667D02*
X121355033Y-81971333D01*
X121155033Y-81338000D02*
X121155033Y-80871333D01*
X121155033Y-80871333D02*
X121855033Y-81171333D01*
X119375366Y-81222000D02*
X119408700Y-81255333D01*
X119408700Y-81255333D02*
X119442033Y-81355333D01*
X119442033Y-81355333D02*
X119442033Y-81422000D01*
X119442033Y-81422000D02*
X119408700Y-81522000D01*
X119408700Y-81522000D02*
X119342033Y-81588667D01*
X119342033Y-81588667D02*
X119275366Y-81622000D01*
X119275366Y-81622000D02*
X119142033Y-81655333D01*
X119142033Y-81655333D02*
X119042033Y-81655333D01*
X119042033Y-81655333D02*
X118908700Y-81622000D01*
X118908700Y-81622000D02*
X118842033Y-81588667D01*
X118842033Y-81588667D02*
X118775366Y-81522000D01*
X118775366Y-81522000D02*
X118742033Y-81422000D01*
X118742033Y-81422000D02*
X118742033Y-81355333D01*
X118742033Y-81355333D02*
X118775366Y-81255333D01*
X118775366Y-81255333D02*
X118808700Y-81222000D01*
X119442033Y-80555333D02*
X119442033Y-80955333D01*
X119442033Y-80755333D02*
X118742033Y-80755333D01*
X118742033Y-80755333D02*
X118842033Y-80822000D01*
X118842033Y-80822000D02*
X118908700Y-80888667D01*
X118908700Y-80888667D02*
X118942033Y-80955333D01*
X118742033Y-79955333D02*
X118742033Y-80088666D01*
X118742033Y-80088666D02*
X118775366Y-80155333D01*
X118775366Y-80155333D02*
X118808700Y-80188666D01*
X118808700Y-80188666D02*
X118908700Y-80255333D01*
X118908700Y-80255333D02*
X119042033Y-80288666D01*
X119042033Y-80288666D02*
X119308700Y-80288666D01*
X119308700Y-80288666D02*
X119375366Y-80255333D01*
X119375366Y-80255333D02*
X119408700Y-80222000D01*
X119408700Y-80222000D02*
X119442033Y-80155333D01*
X119442033Y-80155333D02*
X119442033Y-80022000D01*
X119442033Y-80022000D02*
X119408700Y-79955333D01*
X119408700Y-79955333D02*
X119375366Y-79922000D01*
X119375366Y-79922000D02*
X119308700Y-79888666D01*
X119308700Y-79888666D02*
X119142033Y-79888666D01*
X119142033Y-79888666D02*
X119075366Y-79922000D01*
X119075366Y-79922000D02*
X119042033Y-79955333D01*
X119042033Y-79955333D02*
X119008700Y-80022000D01*
X119008700Y-80022000D02*
X119008700Y-80155333D01*
X119008700Y-80155333D02*
X119042033Y-80222000D01*
X119042033Y-80222000D02*
X119075366Y-80255333D01*
X119075366Y-80255333D02*
X119142033Y-80288666D01*
X130359999Y-87117366D02*
X130326666Y-87150700D01*
X130326666Y-87150700D02*
X130226666Y-87184033D01*
X130226666Y-87184033D02*
X130159999Y-87184033D01*
X130159999Y-87184033D02*
X130059999Y-87150700D01*
X130059999Y-87150700D02*
X129993333Y-87084033D01*
X129993333Y-87084033D02*
X129959999Y-87017366D01*
X129959999Y-87017366D02*
X129926666Y-86884033D01*
X129926666Y-86884033D02*
X129926666Y-86784033D01*
X129926666Y-86784033D02*
X129959999Y-86650700D01*
X129959999Y-86650700D02*
X129993333Y-86584033D01*
X129993333Y-86584033D02*
X130059999Y-86517366D01*
X130059999Y-86517366D02*
X130159999Y-86484033D01*
X130159999Y-86484033D02*
X130226666Y-86484033D01*
X130226666Y-86484033D02*
X130326666Y-86517366D01*
X130326666Y-86517366D02*
X130359999Y-86550700D01*
X131026666Y-87184033D02*
X130626666Y-87184033D01*
X130826666Y-87184033D02*
X130826666Y-86484033D01*
X130826666Y-86484033D02*
X130759999Y-86584033D01*
X130759999Y-86584033D02*
X130693333Y-86650700D01*
X130693333Y-86650700D02*
X130626666Y-86684033D01*
X131660000Y-86484033D02*
X131326666Y-86484033D01*
X131326666Y-86484033D02*
X131293333Y-86817366D01*
X131293333Y-86817366D02*
X131326666Y-86784033D01*
X131326666Y-86784033D02*
X131393333Y-86750700D01*
X131393333Y-86750700D02*
X131560000Y-86750700D01*
X131560000Y-86750700D02*
X131626666Y-86784033D01*
X131626666Y-86784033D02*
X131660000Y-86817366D01*
X131660000Y-86817366D02*
X131693333Y-86884033D01*
X131693333Y-86884033D02*
X131693333Y-87050700D01*
X131693333Y-87050700D02*
X131660000Y-87117366D01*
X131660000Y-87117366D02*
X131626666Y-87150700D01*
X131626666Y-87150700D02*
X131560000Y-87184033D01*
X131560000Y-87184033D02*
X131393333Y-87184033D01*
X131393333Y-87184033D02*
X131326666Y-87150700D01*
X131326666Y-87150700D02*
X131293333Y-87117366D01*
X121788366Y-76523000D02*
X121821700Y-76556333D01*
X121821700Y-76556333D02*
X121855033Y-76656333D01*
X121855033Y-76656333D02*
X121855033Y-76723000D01*
X121855033Y-76723000D02*
X121821700Y-76823000D01*
X121821700Y-76823000D02*
X121755033Y-76889667D01*
X121755033Y-76889667D02*
X121688366Y-76923000D01*
X121688366Y-76923000D02*
X121555033Y-76956333D01*
X121555033Y-76956333D02*
X121455033Y-76956333D01*
X121455033Y-76956333D02*
X121321700Y-76923000D01*
X121321700Y-76923000D02*
X121255033Y-76889667D01*
X121255033Y-76889667D02*
X121188366Y-76823000D01*
X121188366Y-76823000D02*
X121155033Y-76723000D01*
X121155033Y-76723000D02*
X121155033Y-76656333D01*
X121155033Y-76656333D02*
X121188366Y-76556333D01*
X121188366Y-76556333D02*
X121221700Y-76523000D01*
X121855033Y-75856333D02*
X121855033Y-76256333D01*
X121855033Y-76056333D02*
X121155033Y-76056333D01*
X121155033Y-76056333D02*
X121255033Y-76123000D01*
X121255033Y-76123000D02*
X121321700Y-76189667D01*
X121321700Y-76189667D02*
X121355033Y-76256333D01*
X121388366Y-75256333D02*
X121855033Y-75256333D01*
X121121700Y-75423000D02*
X121621700Y-75589666D01*
X121621700Y-75589666D02*
X121621700Y-75156333D01*
X111499999Y-85593366D02*
X111466666Y-85626700D01*
X111466666Y-85626700D02*
X111366666Y-85660033D01*
X111366666Y-85660033D02*
X111299999Y-85660033D01*
X111299999Y-85660033D02*
X111199999Y-85626700D01*
X111199999Y-85626700D02*
X111133333Y-85560033D01*
X111133333Y-85560033D02*
X111099999Y-85493366D01*
X111099999Y-85493366D02*
X111066666Y-85360033D01*
X111066666Y-85360033D02*
X111066666Y-85260033D01*
X111066666Y-85260033D02*
X111099999Y-85126700D01*
X111099999Y-85126700D02*
X111133333Y-85060033D01*
X111133333Y-85060033D02*
X111199999Y-84993366D01*
X111199999Y-84993366D02*
X111299999Y-84960033D01*
X111299999Y-84960033D02*
X111366666Y-84960033D01*
X111366666Y-84960033D02*
X111466666Y-84993366D01*
X111466666Y-84993366D02*
X111499999Y-85026700D01*
X112166666Y-85660033D02*
X111766666Y-85660033D01*
X111966666Y-85660033D02*
X111966666Y-84960033D01*
X111966666Y-84960033D02*
X111899999Y-85060033D01*
X111899999Y-85060033D02*
X111833333Y-85126700D01*
X111833333Y-85126700D02*
X111766666Y-85160033D01*
X112400000Y-84960033D02*
X112833333Y-84960033D01*
X112833333Y-84960033D02*
X112600000Y-85226700D01*
X112600000Y-85226700D02*
X112700000Y-85226700D01*
X112700000Y-85226700D02*
X112766666Y-85260033D01*
X112766666Y-85260033D02*
X112800000Y-85293366D01*
X112800000Y-85293366D02*
X112833333Y-85360033D01*
X112833333Y-85360033D02*
X112833333Y-85526700D01*
X112833333Y-85526700D02*
X112800000Y-85593366D01*
X112800000Y-85593366D02*
X112766666Y-85626700D01*
X112766666Y-85626700D02*
X112700000Y-85660033D01*
X112700000Y-85660033D02*
X112500000Y-85660033D01*
X112500000Y-85660033D02*
X112433333Y-85626700D01*
X112433333Y-85626700D02*
X112400000Y-85593366D01*
X119375366Y-77450000D02*
X119408700Y-77483333D01*
X119408700Y-77483333D02*
X119442033Y-77583333D01*
X119442033Y-77583333D02*
X119442033Y-77650000D01*
X119442033Y-77650000D02*
X119408700Y-77750000D01*
X119408700Y-77750000D02*
X119342033Y-77816667D01*
X119342033Y-77816667D02*
X119275366Y-77850000D01*
X119275366Y-77850000D02*
X119142033Y-77883333D01*
X119142033Y-77883333D02*
X119042033Y-77883333D01*
X119042033Y-77883333D02*
X118908700Y-77850000D01*
X118908700Y-77850000D02*
X118842033Y-77816667D01*
X118842033Y-77816667D02*
X118775366Y-77750000D01*
X118775366Y-77750000D02*
X118742033Y-77650000D01*
X118742033Y-77650000D02*
X118742033Y-77583333D01*
X118742033Y-77583333D02*
X118775366Y-77483333D01*
X118775366Y-77483333D02*
X118808700Y-77450000D01*
X119442033Y-76783333D02*
X119442033Y-77183333D01*
X119442033Y-76983333D02*
X118742033Y-76983333D01*
X118742033Y-76983333D02*
X118842033Y-77050000D01*
X118842033Y-77050000D02*
X118908700Y-77116667D01*
X118908700Y-77116667D02*
X118942033Y-77183333D01*
X118808700Y-76516666D02*
X118775366Y-76483333D01*
X118775366Y-76483333D02*
X118742033Y-76416666D01*
X118742033Y-76416666D02*
X118742033Y-76250000D01*
X118742033Y-76250000D02*
X118775366Y-76183333D01*
X118775366Y-76183333D02*
X118808700Y-76150000D01*
X118808700Y-76150000D02*
X118875366Y-76116666D01*
X118875366Y-76116666D02*
X118942033Y-76116666D01*
X118942033Y-76116666D02*
X119042033Y-76150000D01*
X119042033Y-76150000D02*
X119442033Y-76550000D01*
X119442033Y-76550000D02*
X119442033Y-76116666D01*
X126422999Y-88133366D02*
X126389666Y-88166700D01*
X126389666Y-88166700D02*
X126289666Y-88200033D01*
X126289666Y-88200033D02*
X126222999Y-88200033D01*
X126222999Y-88200033D02*
X126122999Y-88166700D01*
X126122999Y-88166700D02*
X126056333Y-88100033D01*
X126056333Y-88100033D02*
X126022999Y-88033366D01*
X126022999Y-88033366D02*
X125989666Y-87900033D01*
X125989666Y-87900033D02*
X125989666Y-87800033D01*
X125989666Y-87800033D02*
X126022999Y-87666700D01*
X126022999Y-87666700D02*
X126056333Y-87600033D01*
X126056333Y-87600033D02*
X126122999Y-87533366D01*
X126122999Y-87533366D02*
X126222999Y-87500033D01*
X126222999Y-87500033D02*
X126289666Y-87500033D01*
X126289666Y-87500033D02*
X126389666Y-87533366D01*
X126389666Y-87533366D02*
X126422999Y-87566700D01*
X127089666Y-88200033D02*
X126689666Y-88200033D01*
X126889666Y-88200033D02*
X126889666Y-87500033D01*
X126889666Y-87500033D02*
X126822999Y-87600033D01*
X126822999Y-87600033D02*
X126756333Y-87666700D01*
X126756333Y-87666700D02*
X126689666Y-87700033D01*
X127756333Y-88200033D02*
X127356333Y-88200033D01*
X127556333Y-88200033D02*
X127556333Y-87500033D01*
X127556333Y-87500033D02*
X127489666Y-87600033D01*
X127489666Y-87600033D02*
X127423000Y-87666700D01*
X127423000Y-87666700D02*
X127356333Y-87700033D01*
X132979333Y-86228366D02*
X132946000Y-86261700D01*
X132946000Y-86261700D02*
X132846000Y-86295033D01*
X132846000Y-86295033D02*
X132779333Y-86295033D01*
X132779333Y-86295033D02*
X132679333Y-86261700D01*
X132679333Y-86261700D02*
X132612667Y-86195033D01*
X132612667Y-86195033D02*
X132579333Y-86128366D01*
X132579333Y-86128366D02*
X132546000Y-85995033D01*
X132546000Y-85995033D02*
X132546000Y-85895033D01*
X132546000Y-85895033D02*
X132579333Y-85761700D01*
X132579333Y-85761700D02*
X132612667Y-85695033D01*
X132612667Y-85695033D02*
X132679333Y-85628366D01*
X132679333Y-85628366D02*
X132779333Y-85595033D01*
X132779333Y-85595033D02*
X132846000Y-85595033D01*
X132846000Y-85595033D02*
X132946000Y-85628366D01*
X132946000Y-85628366D02*
X132979333Y-85661700D01*
X133379333Y-85895033D02*
X133312667Y-85861700D01*
X133312667Y-85861700D02*
X133279333Y-85828366D01*
X133279333Y-85828366D02*
X133246000Y-85761700D01*
X133246000Y-85761700D02*
X133246000Y-85728366D01*
X133246000Y-85728366D02*
X133279333Y-85661700D01*
X133279333Y-85661700D02*
X133312667Y-85628366D01*
X133312667Y-85628366D02*
X133379333Y-85595033D01*
X133379333Y-85595033D02*
X133512667Y-85595033D01*
X133512667Y-85595033D02*
X133579333Y-85628366D01*
X133579333Y-85628366D02*
X133612667Y-85661700D01*
X133612667Y-85661700D02*
X133646000Y-85728366D01*
X133646000Y-85728366D02*
X133646000Y-85761700D01*
X133646000Y-85761700D02*
X133612667Y-85828366D01*
X133612667Y-85828366D02*
X133579333Y-85861700D01*
X133579333Y-85861700D02*
X133512667Y-85895033D01*
X133512667Y-85895033D02*
X133379333Y-85895033D01*
X133379333Y-85895033D02*
X133312667Y-85928366D01*
X133312667Y-85928366D02*
X133279333Y-85961700D01*
X133279333Y-85961700D02*
X133246000Y-86028366D01*
X133246000Y-86028366D02*
X133246000Y-86161700D01*
X133246000Y-86161700D02*
X133279333Y-86228366D01*
X133279333Y-86228366D02*
X133312667Y-86261700D01*
X133312667Y-86261700D02*
X133379333Y-86295033D01*
X133379333Y-86295033D02*
X133512667Y-86295033D01*
X133512667Y-86295033D02*
X133579333Y-86261700D01*
X133579333Y-86261700D02*
X133612667Y-86228366D01*
X133612667Y-86228366D02*
X133646000Y-86161700D01*
X133646000Y-86161700D02*
X133646000Y-86028366D01*
X133646000Y-86028366D02*
X133612667Y-85961700D01*
X133612667Y-85961700D02*
X133579333Y-85928366D01*
X133579333Y-85928366D02*
X133512667Y-85895033D01*
X122293333Y-96134366D02*
X122260000Y-96167700D01*
X122260000Y-96167700D02*
X122160000Y-96201033D01*
X122160000Y-96201033D02*
X122093333Y-96201033D01*
X122093333Y-96201033D02*
X121993333Y-96167700D01*
X121993333Y-96167700D02*
X121926667Y-96101033D01*
X121926667Y-96101033D02*
X121893333Y-96034366D01*
X121893333Y-96034366D02*
X121860000Y-95901033D01*
X121860000Y-95901033D02*
X121860000Y-95801033D01*
X121860000Y-95801033D02*
X121893333Y-95667700D01*
X121893333Y-95667700D02*
X121926667Y-95601033D01*
X121926667Y-95601033D02*
X121993333Y-95534366D01*
X121993333Y-95534366D02*
X122093333Y-95501033D01*
X122093333Y-95501033D02*
X122160000Y-95501033D01*
X122160000Y-95501033D02*
X122260000Y-95534366D01*
X122260000Y-95534366D02*
X122293333Y-95567700D01*
X122526667Y-95501033D02*
X122993333Y-95501033D01*
X122993333Y-95501033D02*
X122693333Y-96201033D01*
X120152333Y-96134366D02*
X120119000Y-96167700D01*
X120119000Y-96167700D02*
X120019000Y-96201033D01*
X120019000Y-96201033D02*
X119952333Y-96201033D01*
X119952333Y-96201033D02*
X119852333Y-96167700D01*
X119852333Y-96167700D02*
X119785667Y-96101033D01*
X119785667Y-96101033D02*
X119752333Y-96034366D01*
X119752333Y-96034366D02*
X119719000Y-95901033D01*
X119719000Y-95901033D02*
X119719000Y-95801033D01*
X119719000Y-95801033D02*
X119752333Y-95667700D01*
X119752333Y-95667700D02*
X119785667Y-95601033D01*
X119785667Y-95601033D02*
X119852333Y-95534366D01*
X119852333Y-95534366D02*
X119952333Y-95501033D01*
X119952333Y-95501033D02*
X120019000Y-95501033D01*
X120019000Y-95501033D02*
X120119000Y-95534366D01*
X120119000Y-95534366D02*
X120152333Y-95567700D01*
X120752333Y-95501033D02*
X120619000Y-95501033D01*
X120619000Y-95501033D02*
X120552333Y-95534366D01*
X120552333Y-95534366D02*
X120519000Y-95567700D01*
X120519000Y-95567700D02*
X120452333Y-95667700D01*
X120452333Y-95667700D02*
X120419000Y-95801033D01*
X120419000Y-95801033D02*
X120419000Y-96067700D01*
X120419000Y-96067700D02*
X120452333Y-96134366D01*
X120452333Y-96134366D02*
X120485667Y-96167700D01*
X120485667Y-96167700D02*
X120552333Y-96201033D01*
X120552333Y-96201033D02*
X120685667Y-96201033D01*
X120685667Y-96201033D02*
X120752333Y-96167700D01*
X120752333Y-96167700D02*
X120785667Y-96134366D01*
X120785667Y-96134366D02*
X120819000Y-96067700D01*
X120819000Y-96067700D02*
X120819000Y-95901033D01*
X120819000Y-95901033D02*
X120785667Y-95834366D01*
X120785667Y-95834366D02*
X120752333Y-95801033D01*
X120752333Y-95801033D02*
X120685667Y-95767700D01*
X120685667Y-95767700D02*
X120552333Y-95767700D01*
X120552333Y-95767700D02*
X120485667Y-95801033D01*
X120485667Y-95801033D02*
X120452333Y-95834366D01*
X120452333Y-95834366D02*
X120419000Y-95901033D01*
X133741333Y-99817366D02*
X133708000Y-99850700D01*
X133708000Y-99850700D02*
X133608000Y-99884033D01*
X133608000Y-99884033D02*
X133541333Y-99884033D01*
X133541333Y-99884033D02*
X133441333Y-99850700D01*
X133441333Y-99850700D02*
X133374667Y-99784033D01*
X133374667Y-99784033D02*
X133341333Y-99717366D01*
X133341333Y-99717366D02*
X133308000Y-99584033D01*
X133308000Y-99584033D02*
X133308000Y-99484033D01*
X133308000Y-99484033D02*
X133341333Y-99350700D01*
X133341333Y-99350700D02*
X133374667Y-99284033D01*
X133374667Y-99284033D02*
X133441333Y-99217366D01*
X133441333Y-99217366D02*
X133541333Y-99184033D01*
X133541333Y-99184033D02*
X133608000Y-99184033D01*
X133608000Y-99184033D02*
X133708000Y-99217366D01*
X133708000Y-99217366D02*
X133741333Y-99250700D01*
X134374667Y-99184033D02*
X134041333Y-99184033D01*
X134041333Y-99184033D02*
X134008000Y-99517366D01*
X134008000Y-99517366D02*
X134041333Y-99484033D01*
X134041333Y-99484033D02*
X134108000Y-99450700D01*
X134108000Y-99450700D02*
X134274667Y-99450700D01*
X134274667Y-99450700D02*
X134341333Y-99484033D01*
X134341333Y-99484033D02*
X134374667Y-99517366D01*
X134374667Y-99517366D02*
X134408000Y-99584033D01*
X134408000Y-99584033D02*
X134408000Y-99750700D01*
X134408000Y-99750700D02*
X134374667Y-99817366D01*
X134374667Y-99817366D02*
X134341333Y-99850700D01*
X134341333Y-99850700D02*
X134274667Y-99884033D01*
X134274667Y-99884033D02*
X134108000Y-99884033D01*
X134108000Y-99884033D02*
X134041333Y-99850700D01*
X134041333Y-99850700D02*
X134008000Y-99817366D01*
X127010333Y-93721366D02*
X126977000Y-93754700D01*
X126977000Y-93754700D02*
X126877000Y-93788033D01*
X126877000Y-93788033D02*
X126810333Y-93788033D01*
X126810333Y-93788033D02*
X126710333Y-93754700D01*
X126710333Y-93754700D02*
X126643667Y-93688033D01*
X126643667Y-93688033D02*
X126610333Y-93621366D01*
X126610333Y-93621366D02*
X126577000Y-93488033D01*
X126577000Y-93488033D02*
X126577000Y-93388033D01*
X126577000Y-93388033D02*
X126610333Y-93254700D01*
X126610333Y-93254700D02*
X126643667Y-93188033D01*
X126643667Y-93188033D02*
X126710333Y-93121366D01*
X126710333Y-93121366D02*
X126810333Y-93088033D01*
X126810333Y-93088033D02*
X126877000Y-93088033D01*
X126877000Y-93088033D02*
X126977000Y-93121366D01*
X126977000Y-93121366D02*
X127010333Y-93154700D01*
X127610333Y-93321366D02*
X127610333Y-93788033D01*
X127443667Y-93054700D02*
X127277000Y-93554700D01*
X127277000Y-93554700D02*
X127710333Y-93554700D01*
X116088333Y-85593366D02*
X116055000Y-85626700D01*
X116055000Y-85626700D02*
X115955000Y-85660033D01*
X115955000Y-85660033D02*
X115888333Y-85660033D01*
X115888333Y-85660033D02*
X115788333Y-85626700D01*
X115788333Y-85626700D02*
X115721667Y-85560033D01*
X115721667Y-85560033D02*
X115688333Y-85493366D01*
X115688333Y-85493366D02*
X115655000Y-85360033D01*
X115655000Y-85360033D02*
X115655000Y-85260033D01*
X115655000Y-85260033D02*
X115688333Y-85126700D01*
X115688333Y-85126700D02*
X115721667Y-85060033D01*
X115721667Y-85060033D02*
X115788333Y-84993366D01*
X115788333Y-84993366D02*
X115888333Y-84960033D01*
X115888333Y-84960033D02*
X115955000Y-84960033D01*
X115955000Y-84960033D02*
X116055000Y-84993366D01*
X116055000Y-84993366D02*
X116088333Y-85026700D01*
X116321667Y-84960033D02*
X116755000Y-84960033D01*
X116755000Y-84960033D02*
X116521667Y-85226700D01*
X116521667Y-85226700D02*
X116621667Y-85226700D01*
X116621667Y-85226700D02*
X116688333Y-85260033D01*
X116688333Y-85260033D02*
X116721667Y-85293366D01*
X116721667Y-85293366D02*
X116755000Y-85360033D01*
X116755000Y-85360033D02*
X116755000Y-85526700D01*
X116755000Y-85526700D02*
X116721667Y-85593366D01*
X116721667Y-85593366D02*
X116688333Y-85626700D01*
X116688333Y-85626700D02*
X116621667Y-85660033D01*
X116621667Y-85660033D02*
X116421667Y-85660033D01*
X116421667Y-85660033D02*
X116355000Y-85626700D01*
X116355000Y-85626700D02*
X116321667Y-85593366D01*
X120025333Y-93467366D02*
X119992000Y-93500700D01*
X119992000Y-93500700D02*
X119892000Y-93534033D01*
X119892000Y-93534033D02*
X119825333Y-93534033D01*
X119825333Y-93534033D02*
X119725333Y-93500700D01*
X119725333Y-93500700D02*
X119658667Y-93434033D01*
X119658667Y-93434033D02*
X119625333Y-93367366D01*
X119625333Y-93367366D02*
X119592000Y-93234033D01*
X119592000Y-93234033D02*
X119592000Y-93134033D01*
X119592000Y-93134033D02*
X119625333Y-93000700D01*
X119625333Y-93000700D02*
X119658667Y-92934033D01*
X119658667Y-92934033D02*
X119725333Y-92867366D01*
X119725333Y-92867366D02*
X119825333Y-92834033D01*
X119825333Y-92834033D02*
X119892000Y-92834033D01*
X119892000Y-92834033D02*
X119992000Y-92867366D01*
X119992000Y-92867366D02*
X120025333Y-92900700D01*
X120292000Y-92900700D02*
X120325333Y-92867366D01*
X120325333Y-92867366D02*
X120392000Y-92834033D01*
X120392000Y-92834033D02*
X120558667Y-92834033D01*
X120558667Y-92834033D02*
X120625333Y-92867366D01*
X120625333Y-92867366D02*
X120658667Y-92900700D01*
X120658667Y-92900700D02*
X120692000Y-92967366D01*
X120692000Y-92967366D02*
X120692000Y-93034033D01*
X120692000Y-93034033D02*
X120658667Y-93134033D01*
X120658667Y-93134033D02*
X120258667Y-93534033D01*
X120258667Y-93534033D02*
X120692000Y-93534033D01*
X126375333Y-90546366D02*
X126342000Y-90579700D01*
X126342000Y-90579700D02*
X126242000Y-90613033D01*
X126242000Y-90613033D02*
X126175333Y-90613033D01*
X126175333Y-90613033D02*
X126075333Y-90579700D01*
X126075333Y-90579700D02*
X126008667Y-90513033D01*
X126008667Y-90513033D02*
X125975333Y-90446366D01*
X125975333Y-90446366D02*
X125942000Y-90313033D01*
X125942000Y-90313033D02*
X125942000Y-90213033D01*
X125942000Y-90213033D02*
X125975333Y-90079700D01*
X125975333Y-90079700D02*
X126008667Y-90013033D01*
X126008667Y-90013033D02*
X126075333Y-89946366D01*
X126075333Y-89946366D02*
X126175333Y-89913033D01*
X126175333Y-89913033D02*
X126242000Y-89913033D01*
X126242000Y-89913033D02*
X126342000Y-89946366D01*
X126342000Y-89946366D02*
X126375333Y-89979700D01*
X127042000Y-90613033D02*
X126642000Y-90613033D01*
X126842000Y-90613033D02*
X126842000Y-89913033D01*
X126842000Y-89913033D02*
X126775333Y-90013033D01*
X126775333Y-90013033D02*
X126708667Y-90079700D01*
X126708667Y-90079700D02*
X126642000Y-90113033D01*
D12*
X126580000Y-82690000D02*
X125330000Y-82690000D01*
X126580000Y-92970000D02*
X126580000Y-82690000D01*
X122080000Y-92970000D02*
X126580000Y-92970000D01*
X122080000Y-82690000D02*
X122080000Y-92970000D01*
X123330000Y-82690000D02*
X122080000Y-82690000D01*
X123330000Y-82690000D02*
G75*
G03*
X125330000Y-82690000I1000000J0D01*
G01*
X133596748Y-94182000D02*
X134119252Y-94182000D01*
X133596748Y-92762000D02*
X134119252Y-92762000D01*
X133596748Y-89102000D02*
X134119252Y-89102000D01*
X133596748Y-87682000D02*
X134119252Y-87682000D01*
X135718000Y-94798000D02*
X132858000Y-94798000D01*
X135718000Y-96718000D02*
X135718000Y-94798000D01*
X132858000Y-96718000D02*
X135718000Y-96718000D01*
X135718000Y-89718000D02*
X132858000Y-89718000D01*
X135718000Y-91638000D02*
X135718000Y-89718000D01*
X132858000Y-91638000D02*
X135718000Y-91638000D01*
X125424000Y-77223252D02*
X125424000Y-76700748D01*
X124004000Y-77223252D02*
X124004000Y-76700748D01*
D10*
X112987000Y-90571000D02*
X111612000Y-90571000D01*
X112987000Y-99446000D02*
X117137000Y-99446000D01*
X112987000Y-90546000D02*
X117137000Y-90546000D01*
X112987000Y-99446000D02*
X112987000Y-99331000D01*
X117137000Y-99446000D02*
X117137000Y-99331000D01*
X117137000Y-90546000D02*
X117137000Y-90661000D01*
X112987000Y-90546000D02*
X112987000Y-90571000D01*
X135489000Y-76792000D02*
X135489000Y-75417000D01*
X126614000Y-76792000D02*
X126614000Y-80942000D01*
X135514000Y-76792000D02*
X135514000Y-80942000D01*
X126614000Y-76792000D02*
X126729000Y-76792000D01*
X126614000Y-80942000D02*
X126729000Y-80942000D01*
X135514000Y-80942000D02*
X135399000Y-80942000D01*
X135514000Y-76792000D02*
X135489000Y-76792000D01*
X112987000Y-75458000D02*
X111612000Y-75458000D01*
X112987000Y-84333000D02*
X117137000Y-84333000D01*
X112987000Y-75433000D02*
X117137000Y-75433000D01*
X112987000Y-84333000D02*
X112987000Y-84218000D01*
X117137000Y-84333000D02*
X117137000Y-84218000D01*
X117137000Y-75433000D02*
X117137000Y-75548000D01*
X112987000Y-75433000D02*
X112987000Y-75458000D01*
D12*
X131960252Y-83110000D02*
X131437748Y-83110000D01*
X131960252Y-84530000D02*
X131437748Y-84530000D01*
X124004000Y-80510748D02*
X124004000Y-81033252D01*
X125424000Y-80510748D02*
X125424000Y-81033252D01*
X113336000Y-87241748D02*
X113336000Y-87764252D01*
X114756000Y-87241748D02*
X114756000Y-87764252D01*
X124594252Y-84253000D02*
X124071748Y-84253000D01*
X124594252Y-85673000D02*
X124071748Y-85673000D01*
X129405748Y-99135000D02*
X129928252Y-99135000D01*
X129405748Y-97715000D02*
X129928252Y-97715000D01*
X123877000Y-97655748D02*
X123877000Y-98178252D01*
X125297000Y-97655748D02*
X125297000Y-98178252D01*
X118820000Y-87764252D02*
X118820000Y-87241748D01*
X117400000Y-87764252D02*
X117400000Y-87241748D01*
X124594252Y-90730000D02*
X124071748Y-90730000D01*
X124594252Y-92150000D02*
X124071748Y-92150000D01*
X123392000Y-81033252D02*
X123392000Y-80510748D01*
X121972000Y-81033252D02*
X121972000Y-80510748D01*
X121106000Y-81033252D02*
X121106000Y-80510748D01*
X119686000Y-81033252D02*
X119686000Y-80510748D01*
X130100000Y-89019748D02*
X130100000Y-89542252D01*
X131520000Y-89019748D02*
X131520000Y-89542252D01*
X123392000Y-77223252D02*
X123392000Y-76700748D01*
X121972000Y-77223252D02*
X121972000Y-76700748D01*
X111304000Y-87241748D02*
X111304000Y-87764252D01*
X112724000Y-87241748D02*
X112724000Y-87764252D01*
X119686000Y-76700748D02*
X119686000Y-77223252D01*
X121106000Y-76700748D02*
X121106000Y-77223252D01*
X124071748Y-87832000D02*
X124594252Y-87832000D01*
X124071748Y-86412000D02*
X124594252Y-86412000D01*
X133910000Y-84447748D02*
X133910000Y-84970252D01*
X135330000Y-84447748D02*
X135330000Y-84970252D01*
X123138000Y-98178252D02*
X123138000Y-97655748D01*
X121718000Y-98178252D02*
X121718000Y-97655748D01*
X120979000Y-98178252D02*
X120979000Y-97655748D01*
X119559000Y-98178252D02*
X119559000Y-97655748D01*
X133596748Y-99135000D02*
X134119252Y-99135000D01*
X133596748Y-97715000D02*
X134119252Y-97715000D01*
X125356252Y-93778000D02*
X124833748Y-93778000D01*
X125356252Y-95198000D02*
X124833748Y-95198000D01*
X116788000Y-87764252D02*
X116788000Y-87241748D01*
X115368000Y-87764252D02*
X115368000Y-87241748D01*
X120896748Y-95198000D02*
X121419252Y-95198000D01*
X120896748Y-93778000D02*
X121419252Y-93778000D01*
X124071748Y-89991000D02*
X124594252Y-89991000D01*
X124071748Y-88571000D02*
X124594252Y-88571000D01*
M02*
