G04 #@! TF.GenerationSoftware,KiCad,Pcbnew,7.0.10*
G04 #@! TF.CreationDate,2024-04-16T19:30:50+12:00*
G04 #@! TF.ProjectId,KiwiEFIvr1815_0.1,4b697769-4546-4497-9672-313831355f30,rev?*
G04 #@! TF.SameCoordinates,Original*
G04 #@! TF.FileFunction,Copper,L1,Top*
G04 #@! TF.FilePolarity,Positive*
%FSLAX46Y46*%
G04 Gerber Fmt 4.6, Leading zero omitted, Abs format (unit mm)*
G04 Created by KiCad (PCBNEW 7.0.10) date 2024-04-16 19:30:50*
%MOMM*%
%LPD*%
G01*
G04 APERTURE LIST*
G04 Aperture macros list*
%AMRoundRect*
0 Rectangle with rounded corners*
0 $1 Rounding radius*
0 $2 $3 $4 $5 $6 $7 $8 $9 X,Y pos of 4 corners*
0 Add a 4 corners polygon primitive as box body*
4,1,4,$2,$3,$4,$5,$6,$7,$8,$9,$2,$3,0*
0 Add four circle primitives for the rounded corners*
1,1,$1+$1,$2,$3*
1,1,$1+$1,$4,$5*
1,1,$1+$1,$6,$7*
1,1,$1+$1,$8,$9*
0 Add four rect primitives between the rounded corners*
20,1,$1+$1,$2,$3,$4,$5,0*
20,1,$1+$1,$4,$5,$6,$7,0*
20,1,$1+$1,$6,$7,$8,$9,0*
20,1,$1+$1,$8,$9,$2,$3,0*%
G04 Aperture macros list end*
G04 #@! TA.AperFunction,ComponentPad*
%ADD10O,2.400000X1.600000*%
G04 #@! TD*
G04 #@! TA.AperFunction,ComponentPad*
%ADD11R,2.400000X1.600000*%
G04 #@! TD*
G04 #@! TA.AperFunction,SMDPad,CuDef*
%ADD12RoundRect,0.250000X-0.325000X-0.450000X0.325000X-0.450000X0.325000X0.450000X-0.325000X0.450000X0*%
G04 #@! TD*
G04 #@! TA.AperFunction,SMDPad,CuDef*
%ADD13RoundRect,0.250000X0.325000X0.450000X-0.325000X0.450000X-0.325000X-0.450000X0.325000X-0.450000X0*%
G04 #@! TD*
G04 #@! TA.AperFunction,SMDPad,CuDef*
%ADD14RoundRect,0.250000X0.450000X-0.325000X0.450000X0.325000X-0.450000X0.325000X-0.450000X-0.325000X0*%
G04 #@! TD*
G04 #@! TA.AperFunction,SMDPad,CuDef*
%ADD15R,1.500000X0.600000*%
G04 #@! TD*
G04 #@! TA.AperFunction,SMDPad,CuDef*
%ADD16R,0.600000X1.500000*%
G04 #@! TD*
G04 #@! TA.AperFunction,SMDPad,CuDef*
%ADD17RoundRect,0.250000X-0.450000X0.325000X-0.450000X-0.325000X0.450000X-0.325000X0.450000X0.325000X0*%
G04 #@! TD*
G04 #@! TA.AperFunction,ViaPad*
%ADD18C,0.800000*%
G04 #@! TD*
G04 #@! TA.AperFunction,Conductor*
%ADD19C,0.500000*%
G04 #@! TD*
G04 #@! TA.AperFunction,Conductor*
%ADD20C,0.800000*%
G04 #@! TD*
G04 #@! TA.AperFunction,Conductor*
%ADD21C,0.300000*%
G04 #@! TD*
G04 #@! TA.AperFunction,Conductor*
%ADD22C,0.250000*%
G04 #@! TD*
G04 APERTURE END LIST*
D10*
X128140000Y-84020000D03*
X120520000Y-91640000D03*
X128140000Y-86560000D03*
X120520000Y-89100000D03*
X128140000Y-89100000D03*
X120520000Y-86560000D03*
X128140000Y-91640000D03*
D11*
X120520000Y-84020000D03*
D12*
X134883000Y-93472000D03*
X132833000Y-93472000D03*
X134883000Y-88392000D03*
X132833000Y-88392000D03*
D13*
X132833000Y-95758000D03*
X134883000Y-95758000D03*
X132833000Y-90678000D03*
X134883000Y-90678000D03*
D14*
X124714000Y-75937000D03*
X124714000Y-77987000D03*
D15*
X117762000Y-91186000D03*
X117762000Y-92456000D03*
X117762000Y-93726000D03*
X117762000Y-94996000D03*
X117762000Y-96266000D03*
X117762000Y-97536000D03*
X117762000Y-98806000D03*
X112362000Y-98806000D03*
X112362000Y-97536000D03*
X112362000Y-96266000D03*
X112362000Y-94996000D03*
X112362000Y-93726000D03*
X112362000Y-92456000D03*
X112362000Y-91186000D03*
D16*
X134874000Y-81567000D03*
X133604000Y-81567000D03*
X132334000Y-81567000D03*
X131064000Y-81567000D03*
X129794000Y-81567000D03*
X128524000Y-81567000D03*
X127254000Y-81567000D03*
X127254000Y-76167000D03*
X128524000Y-76167000D03*
X129794000Y-76167000D03*
X131064000Y-76167000D03*
X132334000Y-76167000D03*
X133604000Y-76167000D03*
X134874000Y-76167000D03*
D15*
X117762000Y-76073000D03*
X117762000Y-77343000D03*
X117762000Y-78613000D03*
X117762000Y-79883000D03*
X117762000Y-81153000D03*
X117762000Y-82423000D03*
X117762000Y-83693000D03*
X112362000Y-83693000D03*
X112362000Y-82423000D03*
X112362000Y-81153000D03*
X112362000Y-79883000D03*
X112362000Y-78613000D03*
X112362000Y-77343000D03*
X112362000Y-76073000D03*
D13*
X130674000Y-83820000D03*
X132724000Y-83820000D03*
D17*
X124714000Y-81797000D03*
X124714000Y-79747000D03*
X114046000Y-88528000D03*
X114046000Y-86478000D03*
D13*
X123308000Y-84963000D03*
X125358000Y-84963000D03*
D12*
X130692000Y-98425000D03*
X128642000Y-98425000D03*
D17*
X124587000Y-98942000D03*
X124587000Y-96892000D03*
D14*
X118110000Y-86478000D03*
X118110000Y-88528000D03*
D13*
X123308000Y-91440000D03*
X125358000Y-91440000D03*
D14*
X122682000Y-79747000D03*
X122682000Y-81797000D03*
X120396000Y-79747000D03*
X120396000Y-81797000D03*
D17*
X130810000Y-90306000D03*
X130810000Y-88256000D03*
D14*
X122682000Y-75937000D03*
X122682000Y-77987000D03*
D17*
X112014000Y-88528000D03*
X112014000Y-86478000D03*
X120396000Y-77987000D03*
X120396000Y-75937000D03*
D12*
X125358000Y-87122000D03*
X123308000Y-87122000D03*
D17*
X134620000Y-85734000D03*
X134620000Y-83684000D03*
D14*
X122428000Y-96892000D03*
X122428000Y-98942000D03*
X120269000Y-96892000D03*
X120269000Y-98942000D03*
D12*
X134883000Y-98425000D03*
X132833000Y-98425000D03*
D13*
X124070000Y-94488000D03*
X126120000Y-94488000D03*
D14*
X116078000Y-86478000D03*
X116078000Y-88528000D03*
D12*
X122183000Y-94488000D03*
X120133000Y-94488000D03*
X125358000Y-89281000D03*
X123308000Y-89281000D03*
D18*
X116332000Y-97536000D03*
X113538000Y-76708000D03*
X125984000Y-75946000D03*
X133096000Y-86868000D03*
X113957990Y-97506452D03*
X134239000Y-97028000D03*
X134492997Y-91948000D03*
X125358000Y-92828000D03*
X113728500Y-93154500D03*
X116205000Y-95631000D03*
X126111000Y-95631000D03*
X130048000Y-93726000D03*
X118872000Y-93726000D03*
X128903485Y-82423272D03*
X131318000Y-91948000D03*
X124333000Y-82931000D03*
X134874000Y-82677000D03*
X125984000Y-77724000D03*
X115824000Y-83566000D03*
X131318000Y-86106000D03*
X135128000Y-78105000D03*
X131191000Y-78232000D03*
X126619000Y-85217000D03*
X114427000Y-83947000D03*
X127508000Y-78359000D03*
X129667000Y-78270990D03*
X131399000Y-80264000D03*
X127508000Y-80264000D03*
X132588000Y-77380000D03*
X129402998Y-77306456D03*
X135128000Y-79121000D03*
X128524000Y-79121000D03*
X134493000Y-86995000D03*
X132461000Y-80354000D03*
D19*
X114046000Y-88528000D02*
X114046000Y-88510000D01*
D20*
X124070000Y-94488000D02*
X122183000Y-94488000D01*
X122183000Y-96647000D02*
X122428000Y-96892000D01*
X122183000Y-94488000D02*
X122183000Y-96647000D01*
X122428000Y-96892000D02*
X120269000Y-96892000D01*
X119625000Y-97536000D02*
X117762000Y-97536000D01*
X120269000Y-96892000D02*
X119625000Y-97536000D01*
X117762000Y-97536000D02*
X116332000Y-97536000D01*
X113912000Y-97536000D02*
X112362000Y-97536000D01*
X112362000Y-92456000D02*
X112362000Y-91186000D01*
X112014000Y-90838000D02*
X112362000Y-91186000D01*
X112014000Y-88528000D02*
X112014000Y-90838000D01*
X112014000Y-88528000D02*
X114046000Y-88528000D01*
X116078000Y-86496000D02*
X114046000Y-88528000D01*
X116078000Y-86478000D02*
X116078000Y-86496000D01*
X120520000Y-84068000D02*
X118110000Y-86478000D01*
X120520000Y-84020000D02*
X120520000Y-84068000D01*
X118110000Y-86478000D02*
X116078000Y-86478000D01*
X119704000Y-92456000D02*
X120520000Y-91640000D01*
X117762000Y-92456000D02*
X119704000Y-92456000D01*
X112362000Y-76073000D02*
X112362000Y-77343000D01*
X112362000Y-77343000D02*
X112903000Y-77343000D01*
X112903000Y-77343000D02*
X113538000Y-76708000D01*
X116332000Y-77343000D02*
X114808000Y-78867000D01*
X117762000Y-77343000D02*
X116332000Y-77343000D01*
X119596000Y-77987000D02*
X120396000Y-77987000D01*
X118952000Y-77343000D02*
X119596000Y-77987000D01*
X117762000Y-77343000D02*
X118952000Y-77343000D01*
X120396000Y-77987000D02*
X120396000Y-79747000D01*
X120396000Y-79747000D02*
X122555000Y-79747000D01*
X120260000Y-79883000D02*
X120396000Y-79747000D01*
X117762000Y-79883000D02*
X120260000Y-79883000D01*
X117762000Y-82423000D02*
X118745000Y-82423000D01*
X120342000Y-84020000D02*
X120520000Y-84020000D01*
X118745000Y-82423000D02*
X120342000Y-84020000D01*
X114173000Y-79502000D02*
X114808000Y-78867000D01*
X114173000Y-82169000D02*
X114173000Y-79502000D01*
X114166000Y-82169000D02*
X114173000Y-82169000D01*
X112362000Y-82423000D02*
X113912000Y-82423000D01*
X113912000Y-82423000D02*
X114166000Y-82169000D01*
X113792000Y-79883000D02*
X112362000Y-79883000D01*
X114808000Y-78867000D02*
X113792000Y-79883000D01*
X116586000Y-79883000D02*
X117762000Y-79883000D01*
X116205000Y-80264000D02*
X116586000Y-79883000D01*
X116205000Y-81788000D02*
X116205000Y-80264000D01*
X117762000Y-82423000D02*
X116840000Y-82423000D01*
X116840000Y-82423000D02*
X116205000Y-81788000D01*
X129346000Y-90306000D02*
X128140000Y-89100000D01*
X130810000Y-90306000D02*
X129346000Y-90306000D01*
X122555000Y-75937000D02*
X124714000Y-75937000D01*
X124714000Y-75937000D02*
X125975000Y-75937000D01*
X125975000Y-75937000D02*
X125984000Y-75946000D01*
X127033000Y-75946000D02*
X127254000Y-76167000D01*
X125984000Y-75946000D02*
X127033000Y-75946000D01*
X134620000Y-85734000D02*
X134230000Y-85734000D01*
X134230000Y-85734000D02*
X133096000Y-86868000D01*
X113957989Y-97490011D02*
X113912000Y-97536000D01*
X112362000Y-94996000D02*
X113912000Y-94996000D01*
X113957989Y-95041989D02*
X113957989Y-97490011D01*
X113912000Y-94996000D02*
X113957989Y-95041989D01*
X113912000Y-97536000D02*
X113928442Y-97536000D01*
X113928442Y-97536000D02*
X113957990Y-97506452D01*
D19*
X116840000Y-92456000D02*
X117762000Y-92456000D01*
X116332000Y-92964000D02*
X116840000Y-92456000D01*
X116332000Y-94488000D02*
X116332000Y-92964000D01*
X117762000Y-94996000D02*
X116840000Y-94996000D01*
X116840000Y-94996000D02*
X116332000Y-94488000D01*
D20*
X125539000Y-89100000D02*
X125358000Y-89281000D01*
X128140000Y-89100000D02*
X125539000Y-89100000D01*
X125358000Y-89281000D02*
X125358000Y-87122000D01*
X134883000Y-95758000D02*
X134239000Y-97028000D01*
X134883000Y-98425000D02*
X134239000Y-97028000D01*
X134883000Y-90678000D02*
X134883000Y-91557997D01*
X134883000Y-91557997D02*
X134492997Y-91948000D01*
X123308000Y-91440000D02*
X123308000Y-89281000D01*
X120701000Y-89281000D02*
X120520000Y-89100000D01*
X123308000Y-89281000D02*
X120701000Y-89281000D01*
D19*
X125095000Y-93091000D02*
X125358000Y-92828000D01*
X120730000Y-93091000D02*
X125095000Y-93091000D01*
X120133000Y-94488000D02*
X120133000Y-93688000D01*
X120133000Y-93688000D02*
X120730000Y-93091000D01*
X113612000Y-93726000D02*
X113728500Y-93609500D01*
X112362000Y-93726000D02*
X113612000Y-93726000D01*
X113728500Y-93609500D02*
X113728500Y-93154500D01*
X125358000Y-92828000D02*
X125358000Y-91440000D01*
X118110000Y-88528000D02*
X116078000Y-88528000D01*
X114808000Y-89798000D02*
X116078000Y-88528000D01*
X114808000Y-98298000D02*
X114808000Y-89798000D01*
X114300000Y-98806000D02*
X114808000Y-98298000D01*
X112362000Y-98806000D02*
X114300000Y-98806000D01*
X126120000Y-95288000D02*
X126111000Y-95297000D01*
X126120000Y-94488000D02*
X126120000Y-95288000D01*
X125739000Y-96892000D02*
X124587000Y-96892000D01*
X126111000Y-96520000D02*
X125739000Y-96892000D01*
X126111000Y-95297000D02*
X126111000Y-95631000D01*
X126111000Y-95631000D02*
X126111000Y-96520000D01*
X115570000Y-94996000D02*
X116205000Y-95631000D01*
X115570000Y-92128000D02*
X115570000Y-94996000D01*
X117762000Y-91186000D02*
X116512000Y-91186000D01*
X116512000Y-91186000D02*
X115570000Y-92128000D01*
X117762000Y-93726000D02*
X118872000Y-93726000D01*
X130048000Y-97781000D02*
X130692000Y-98425000D01*
X130048000Y-93726000D02*
X130048000Y-97781000D01*
X130692000Y-98425000D02*
X132833000Y-98425000D01*
X128524000Y-82043787D02*
X128903485Y-82423272D01*
X128524000Y-81567000D02*
X128524000Y-82043787D01*
D20*
X120133000Y-98806000D02*
X120269000Y-98942000D01*
X117762000Y-98806000D02*
X120133000Y-98806000D01*
X120269000Y-98942000D02*
X122428000Y-98942000D01*
X122428000Y-98942000D02*
X124587000Y-98942000D01*
X128125000Y-98942000D02*
X128642000Y-98425000D01*
X124587000Y-98942000D02*
X128125000Y-98942000D01*
X128642000Y-92142000D02*
X128140000Y-91640000D01*
X128642000Y-98425000D02*
X128642000Y-92142000D01*
X120396000Y-81797000D02*
X122555000Y-81797000D01*
X122555000Y-81797000D02*
X124714000Y-81797000D01*
X128140000Y-91640000D02*
X131010000Y-91640000D01*
X131010000Y-91640000D02*
X131318000Y-91948000D01*
X134484000Y-83820000D02*
X134620000Y-83684000D01*
X132724000Y-83820000D02*
X134484000Y-83820000D01*
X134874000Y-83430000D02*
X134620000Y-83684000D01*
X124714000Y-81797000D02*
X124714000Y-82550000D01*
X124714000Y-82550000D02*
X124333000Y-82931000D01*
X134874000Y-81567000D02*
X134874000Y-82677000D01*
X134874000Y-82677000D02*
X134874000Y-83430000D01*
X124714000Y-77987000D02*
X125721000Y-77987000D01*
X125721000Y-77987000D02*
X125984000Y-77724000D01*
X117762000Y-83693000D02*
X115951000Y-83693000D01*
X115951000Y-83693000D02*
X115824000Y-83566000D01*
X131717999Y-85706001D02*
X131318000Y-86106000D01*
X132724000Y-84700000D02*
X131717999Y-85706001D01*
X132724000Y-83820000D02*
X132724000Y-84700000D01*
X122746000Y-86560000D02*
X123308000Y-87122000D01*
X120520000Y-86560000D02*
X122746000Y-86560000D01*
X123308000Y-87122000D02*
X123308000Y-84963000D01*
D21*
X120396000Y-75937000D02*
X119596000Y-75937000D01*
X119596000Y-75937000D02*
X119034010Y-75375010D01*
X119034010Y-75375010D02*
X116648990Y-75375010D01*
X113412000Y-78613000D02*
X112362000Y-78613000D01*
X116648990Y-75375010D02*
X113538000Y-78486000D01*
X113538000Y-78486000D02*
X113538000Y-78487000D01*
X113538000Y-78487000D02*
X113412000Y-78613000D01*
X121554826Y-76560372D02*
X121019372Y-76560372D01*
X125857000Y-83575000D02*
X125857000Y-79121000D01*
X125358000Y-84074000D02*
X125857000Y-83575000D01*
X125857000Y-79121000D02*
X126757999Y-78220001D01*
X121856464Y-76862010D02*
X121554826Y-76560372D01*
X126757999Y-78220001D02*
X126757999Y-77437325D01*
X121019372Y-76560372D02*
X120396000Y-75937000D01*
X126757999Y-77437325D02*
X126182684Y-76862010D01*
X126182684Y-76862010D02*
X121856464Y-76862010D01*
X125358000Y-84074000D02*
X125358000Y-84963000D01*
D19*
X112362000Y-83693000D02*
X112362000Y-83980000D01*
X112014000Y-84328000D02*
X112014000Y-86478000D01*
X112362000Y-83980000D02*
X112014000Y-84328000D01*
X112014000Y-86478000D02*
X114046000Y-86478000D01*
D22*
X124315000Y-79747000D02*
X124714000Y-79747000D01*
X122555000Y-77987000D02*
X124315000Y-79747000D01*
X121911000Y-77343000D02*
X122555000Y-77987000D01*
X121539000Y-77343000D02*
X121911000Y-77343000D01*
X121282990Y-77086990D02*
X121539000Y-77343000D01*
X119957800Y-77086990D02*
X121282990Y-77086990D01*
X117762000Y-76073000D02*
X118943810Y-76073000D01*
X118943810Y-76073000D02*
X119957800Y-77086990D01*
X130674000Y-88120000D02*
X130810000Y-88256000D01*
D19*
X115189000Y-82677000D02*
X114445999Y-83420001D01*
X115189000Y-80010000D02*
X115189000Y-82677000D01*
X117762000Y-78613000D02*
X116586000Y-78613000D01*
X116586000Y-78613000D02*
X115189000Y-80010000D01*
D22*
X130791001Y-78631999D02*
X131191000Y-78232000D01*
X130438999Y-78984001D02*
X130791001Y-78631999D01*
X130438999Y-82784999D02*
X130438999Y-78984001D01*
X130674000Y-83820000D02*
X130674000Y-83020000D01*
X130674000Y-83020000D02*
X130438999Y-82784999D01*
X130293000Y-88256000D02*
X130810000Y-88256000D01*
X129921000Y-87884000D02*
X130293000Y-88256000D01*
X126873000Y-87884000D02*
X129921000Y-87884000D01*
X126492000Y-87503000D02*
X126873000Y-87884000D01*
X126619000Y-85217000D02*
X126492000Y-85344000D01*
X126492000Y-85344000D02*
X126492000Y-87503000D01*
D21*
X130429000Y-87875000D02*
X130810000Y-88256000D01*
X130429000Y-85344000D02*
X130429000Y-87875000D01*
X130683000Y-85090000D02*
X130429000Y-85344000D01*
X130683000Y-84629000D02*
X130683000Y-85090000D01*
X130674000Y-83820000D02*
X130674000Y-84620000D01*
X130674000Y-84620000D02*
X130683000Y-84629000D01*
D19*
X135128000Y-76421000D02*
X134874000Y-76167000D01*
X135128000Y-78105000D02*
X135128000Y-76421000D01*
X114445999Y-83928001D02*
X114427000Y-83947000D01*
X114445999Y-83420001D02*
X114445999Y-83928001D01*
D21*
X126640000Y-84020000D02*
X128140000Y-84020000D01*
X126365000Y-83745000D02*
X126640000Y-84020000D01*
X126365000Y-82645000D02*
X126365000Y-83745000D01*
X126357010Y-82637010D02*
X126365000Y-82645000D01*
X126357010Y-79509990D02*
X126357010Y-82637010D01*
X127508000Y-78359000D02*
X126357010Y-79509990D01*
D22*
X129960010Y-78270990D02*
X129667000Y-78270990D01*
D19*
X131064000Y-77089000D02*
X131064000Y-76167000D01*
X129921000Y-78232000D02*
X131064000Y-77089000D01*
X129735456Y-78232000D02*
X129921000Y-78232000D01*
X129667000Y-78270990D02*
X129696466Y-78270990D01*
X129696466Y-78270990D02*
X129735456Y-78232000D01*
D21*
X128721000Y-85979000D02*
X128140000Y-86560000D01*
X129690010Y-85009990D02*
X128721000Y-85979000D01*
X129690010Y-82720990D02*
X129690010Y-85009990D01*
X129794000Y-81567000D02*
X129794000Y-82617000D01*
X129794000Y-82617000D02*
X129690010Y-82720990D01*
D22*
X131399000Y-80264000D02*
X131399000Y-80437000D01*
X131399000Y-80437000D02*
X131194000Y-80437000D01*
X127508000Y-80264000D02*
X127508000Y-80391000D01*
X127508000Y-80391000D02*
X127430000Y-80391000D01*
D21*
X127254000Y-80899000D02*
X127254000Y-81567000D01*
X127508000Y-80264000D02*
X127508000Y-80645000D01*
X127508000Y-80645000D02*
X127254000Y-80899000D01*
D19*
X131399000Y-79675000D02*
X131399000Y-80264000D01*
X131826000Y-79248000D02*
X131399000Y-79675000D01*
X133350000Y-79248000D02*
X131826000Y-79248000D01*
X133604000Y-81567000D02*
X133604000Y-79502000D01*
X133604000Y-79502000D02*
X133350000Y-79248000D01*
X131191000Y-81440000D02*
X131064000Y-81567000D01*
X131399000Y-80264000D02*
X131191000Y-80472000D01*
X131191000Y-80472000D02*
X131191000Y-81440000D01*
X127254000Y-80645000D02*
X127254000Y-81567000D01*
X127508000Y-80391000D02*
X127254000Y-80645000D01*
D22*
X129654544Y-77306456D02*
X129402998Y-77306456D01*
D19*
X129402998Y-77306456D02*
X129576544Y-77306456D01*
X129794000Y-77089000D02*
X129794000Y-76167000D01*
X129576544Y-77306456D02*
X129794000Y-77089000D01*
X132588000Y-76421000D02*
X132334000Y-76167000D01*
X132588000Y-77380000D02*
X132588000Y-76421000D01*
X132334000Y-76167000D02*
X133604000Y-76167000D01*
X132833000Y-90678000D02*
X132833000Y-88392000D01*
X132833000Y-95758000D02*
X132833000Y-93472000D01*
D22*
X134883000Y-88392000D02*
X135649990Y-87625010D01*
X135649990Y-87625010D02*
X135649990Y-87630000D01*
X135649990Y-87630000D02*
X135649990Y-84087990D01*
X135649990Y-84087990D02*
X135649990Y-82804000D01*
X135649990Y-82804000D02*
X135649990Y-79642990D01*
X135649990Y-79642990D02*
X135128000Y-79121000D01*
D19*
X128524000Y-79121000D02*
X128524000Y-76167000D01*
X132461000Y-81440000D02*
X132334000Y-81567000D01*
X132461000Y-80354000D02*
X132461000Y-81440000D01*
D22*
X134308316Y-86995000D02*
X134019658Y-87283658D01*
X134493000Y-86995000D02*
X134308316Y-86995000D01*
D21*
X134019658Y-87283658D02*
X134308315Y-86995000D01*
X133615998Y-92308002D02*
X133615998Y-91587998D01*
X133858000Y-91345996D02*
X133858000Y-87445315D01*
X134156624Y-92848628D02*
X133615998Y-92308002D01*
X133615998Y-91587998D02*
X133858000Y-91345996D01*
X134259628Y-92848628D02*
X134156624Y-92848628D01*
X134883000Y-93472000D02*
X134259628Y-92848628D01*
X133858000Y-87445315D02*
X134019658Y-87283658D01*
M02*
