G04 #@! TF.GenerationSoftware,KiCad,Pcbnew,7.0.10*
G04 #@! TF.CreationDate,2024-04-16T19:30:50+12:00*
G04 #@! TF.ProjectId,KiwiEFIvr1815_0.1,4b697769-4546-4497-9672-313831355f30,rev?*
G04 #@! TF.SameCoordinates,Original*
G04 #@! TF.FileFunction,Legend,Bot*
G04 #@! TF.FilePolarity,Positive*
%FSLAX46Y46*%
G04 Gerber Fmt 4.6, Leading zero omitted, Abs format (unit mm)*
G04 Created by KiCad (PCBNEW 7.0.10) date 2024-04-16 19:30:50*
%MOMM*%
%LPD*%
G01*
G04 APERTURE LIST*
%ADD10C,0.250000*%
%ADD11C,0.150000*%
G04 APERTURE END LIST*
D10*
X131070000Y-97660928D02*
X131070000Y-96160928D01*
X130212857Y-97660928D02*
X130855714Y-96803785D01*
X130212857Y-96160928D02*
X131070000Y-97018071D01*
X129570000Y-97660928D02*
X129570000Y-96160928D01*
X128998571Y-96160928D02*
X128641428Y-97660928D01*
X128641428Y-97660928D02*
X128355714Y-96589500D01*
X128355714Y-96589500D02*
X128069999Y-97660928D01*
X128069999Y-97660928D02*
X127712857Y-96160928D01*
X127141428Y-97660928D02*
X127141428Y-96160928D01*
X126427142Y-96875214D02*
X125927142Y-96875214D01*
X125712856Y-97660928D02*
X126427142Y-97660928D01*
X126427142Y-97660928D02*
X126427142Y-96160928D01*
X126427142Y-96160928D02*
X125712856Y-96160928D01*
X124569999Y-96875214D02*
X125069999Y-96875214D01*
X125069999Y-97660928D02*
X125069999Y-96160928D01*
X125069999Y-96160928D02*
X124355713Y-96160928D01*
X123784285Y-97660928D02*
X123784285Y-96160928D01*
X123069999Y-97518071D02*
X122998570Y-97589500D01*
X122998570Y-97589500D02*
X123069999Y-97660928D01*
X123069999Y-97660928D02*
X123141427Y-97589500D01*
X123141427Y-97589500D02*
X123069999Y-97518071D01*
X123069999Y-97518071D02*
X123069999Y-97660928D01*
X122355713Y-97660928D02*
X122355713Y-96160928D01*
X122355713Y-96160928D02*
X121498570Y-97660928D01*
X121498570Y-97660928D02*
X121498570Y-96160928D01*
X120927141Y-96160928D02*
X119927141Y-96160928D01*
X119927141Y-96160928D02*
X120927141Y-97660928D01*
X120927141Y-97660928D02*
X119927141Y-97660928D01*
D11*
X111957295Y-84988857D02*
X112604914Y-84988857D01*
X112604914Y-84988857D02*
X112681104Y-85026952D01*
X112681104Y-85026952D02*
X112719200Y-85065047D01*
X112719200Y-85065047D02*
X112757295Y-85141238D01*
X112757295Y-85141238D02*
X112757295Y-85293619D01*
X112757295Y-85293619D02*
X112719200Y-85369809D01*
X112719200Y-85369809D02*
X112681104Y-85407904D01*
X112681104Y-85407904D02*
X112604914Y-85446000D01*
X112604914Y-85446000D02*
X111957295Y-85446000D01*
X112757295Y-85826952D02*
X111957295Y-85826952D01*
X111957295Y-85826952D02*
X112757295Y-86284095D01*
X112757295Y-86284095D02*
X111957295Y-86284095D01*
X112757295Y-86665047D02*
X111957295Y-86665047D01*
X111957295Y-86665047D02*
X111957295Y-86855523D01*
X111957295Y-86855523D02*
X111995390Y-86969809D01*
X111995390Y-86969809D02*
X112071580Y-87045999D01*
X112071580Y-87045999D02*
X112147771Y-87084094D01*
X112147771Y-87084094D02*
X112300152Y-87122190D01*
X112300152Y-87122190D02*
X112414438Y-87122190D01*
X112414438Y-87122190D02*
X112566819Y-87084094D01*
X112566819Y-87084094D02*
X112643009Y-87045999D01*
X112643009Y-87045999D02*
X112719200Y-86969809D01*
X112719200Y-86969809D02*
X112757295Y-86855523D01*
X112757295Y-86855523D02*
X112757295Y-86665047D01*
X112338247Y-87465047D02*
X112338247Y-87731713D01*
X112757295Y-87845999D02*
X112757295Y-87465047D01*
X112757295Y-87465047D02*
X111957295Y-87465047D01*
X111957295Y-87465047D02*
X111957295Y-87845999D01*
X112757295Y-88646000D02*
X112376342Y-88379333D01*
X112757295Y-88188857D02*
X111957295Y-88188857D01*
X111957295Y-88188857D02*
X111957295Y-88493619D01*
X111957295Y-88493619D02*
X111995390Y-88569809D01*
X111995390Y-88569809D02*
X112033485Y-88607904D01*
X112033485Y-88607904D02*
X112109676Y-88646000D01*
X112109676Y-88646000D02*
X112223961Y-88646000D01*
X112223961Y-88646000D02*
X112300152Y-88607904D01*
X112300152Y-88607904D02*
X112338247Y-88569809D01*
X112338247Y-88569809D02*
X112376342Y-88493619D01*
X112376342Y-88493619D02*
X112376342Y-88188857D01*
X112757295Y-88988857D02*
X111957295Y-88988857D01*
X111957295Y-88988857D02*
X112757295Y-89446000D01*
X112757295Y-89446000D02*
X111957295Y-89446000D01*
X112338247Y-89826952D02*
X112338247Y-90093618D01*
X112757295Y-90207904D02*
X112757295Y-89826952D01*
X112757295Y-89826952D02*
X111957295Y-89826952D01*
X111957295Y-89826952D02*
X111957295Y-90207904D01*
X112528723Y-90512666D02*
X112528723Y-90893619D01*
X112757295Y-90436476D02*
X111957295Y-90703143D01*
X111957295Y-90703143D02*
X112757295Y-90969809D01*
X111957295Y-91122190D02*
X111957295Y-91579333D01*
X112757295Y-91350761D02*
X111957295Y-91350761D01*
X112757295Y-91846000D02*
X111957295Y-91846000D01*
X112338247Y-91846000D02*
X112338247Y-92303143D01*
X112757295Y-92303143D02*
X111957295Y-92303143D01*
X133579046Y-98434819D02*
X133245713Y-99434819D01*
X133245713Y-99434819D02*
X132912380Y-98434819D01*
X132007618Y-99434819D02*
X132340951Y-98958628D01*
X132579046Y-99434819D02*
X132579046Y-98434819D01*
X132579046Y-98434819D02*
X132198094Y-98434819D01*
X132198094Y-98434819D02*
X132102856Y-98482438D01*
X132102856Y-98482438D02*
X132055237Y-98530057D01*
X132055237Y-98530057D02*
X132007618Y-98625295D01*
X132007618Y-98625295D02*
X132007618Y-98768152D01*
X132007618Y-98768152D02*
X132055237Y-98863390D01*
X132055237Y-98863390D02*
X132102856Y-98911009D01*
X132102856Y-98911009D02*
X132198094Y-98958628D01*
X132198094Y-98958628D02*
X132579046Y-98958628D01*
X130245713Y-99339580D02*
X130293332Y-99387200D01*
X130293332Y-99387200D02*
X130436189Y-99434819D01*
X130436189Y-99434819D02*
X130531427Y-99434819D01*
X130531427Y-99434819D02*
X130674284Y-99387200D01*
X130674284Y-99387200D02*
X130769522Y-99291961D01*
X130769522Y-99291961D02*
X130817141Y-99196723D01*
X130817141Y-99196723D02*
X130864760Y-99006247D01*
X130864760Y-99006247D02*
X130864760Y-98863390D01*
X130864760Y-98863390D02*
X130817141Y-98672914D01*
X130817141Y-98672914D02*
X130769522Y-98577676D01*
X130769522Y-98577676D02*
X130674284Y-98482438D01*
X130674284Y-98482438D02*
X130531427Y-98434819D01*
X130531427Y-98434819D02*
X130436189Y-98434819D01*
X130436189Y-98434819D02*
X130293332Y-98482438D01*
X130293332Y-98482438D02*
X130245713Y-98530057D01*
X129626665Y-98434819D02*
X129436189Y-98434819D01*
X129436189Y-98434819D02*
X129340951Y-98482438D01*
X129340951Y-98482438D02*
X129245713Y-98577676D01*
X129245713Y-98577676D02*
X129198094Y-98768152D01*
X129198094Y-98768152D02*
X129198094Y-99101485D01*
X129198094Y-99101485D02*
X129245713Y-99291961D01*
X129245713Y-99291961D02*
X129340951Y-99387200D01*
X129340951Y-99387200D02*
X129436189Y-99434819D01*
X129436189Y-99434819D02*
X129626665Y-99434819D01*
X129626665Y-99434819D02*
X129721903Y-99387200D01*
X129721903Y-99387200D02*
X129817141Y-99291961D01*
X129817141Y-99291961D02*
X129864760Y-99101485D01*
X129864760Y-99101485D02*
X129864760Y-98768152D01*
X129864760Y-98768152D02*
X129817141Y-98577676D01*
X129817141Y-98577676D02*
X129721903Y-98482438D01*
X129721903Y-98482438D02*
X129626665Y-98434819D01*
X128769522Y-99434819D02*
X128769522Y-98434819D01*
X128769522Y-98434819D02*
X128198094Y-99434819D01*
X128198094Y-99434819D02*
X128198094Y-98434819D01*
X127721903Y-99434819D02*
X127721903Y-98434819D01*
X127721903Y-98434819D02*
X127483808Y-98434819D01*
X127483808Y-98434819D02*
X127340951Y-98482438D01*
X127340951Y-98482438D02*
X127245713Y-98577676D01*
X127245713Y-98577676D02*
X127198094Y-98672914D01*
X127198094Y-98672914D02*
X127150475Y-98863390D01*
X127150475Y-98863390D02*
X127150475Y-99006247D01*
X127150475Y-99006247D02*
X127198094Y-99196723D01*
X127198094Y-99196723D02*
X127245713Y-99291961D01*
X127245713Y-99291961D02*
X127340951Y-99387200D01*
X127340951Y-99387200D02*
X127483808Y-99434819D01*
X127483808Y-99434819D02*
X127721903Y-99434819D01*
X126721903Y-99434819D02*
X126721903Y-98434819D01*
X126388570Y-98434819D02*
X125817142Y-98434819D01*
X126102856Y-99434819D02*
X126102856Y-98434819D01*
X125483808Y-99434819D02*
X125483808Y-98434819D01*
X124817142Y-98434819D02*
X124626666Y-98434819D01*
X124626666Y-98434819D02*
X124531428Y-98482438D01*
X124531428Y-98482438D02*
X124436190Y-98577676D01*
X124436190Y-98577676D02*
X124388571Y-98768152D01*
X124388571Y-98768152D02*
X124388571Y-99101485D01*
X124388571Y-99101485D02*
X124436190Y-99291961D01*
X124436190Y-99291961D02*
X124531428Y-99387200D01*
X124531428Y-99387200D02*
X124626666Y-99434819D01*
X124626666Y-99434819D02*
X124817142Y-99434819D01*
X124817142Y-99434819D02*
X124912380Y-99387200D01*
X124912380Y-99387200D02*
X125007618Y-99291961D01*
X125007618Y-99291961D02*
X125055237Y-99101485D01*
X125055237Y-99101485D02*
X125055237Y-98768152D01*
X125055237Y-98768152D02*
X125007618Y-98577676D01*
X125007618Y-98577676D02*
X124912380Y-98482438D01*
X124912380Y-98482438D02*
X124817142Y-98434819D01*
X123959999Y-99434819D02*
X123959999Y-98434819D01*
X123959999Y-98434819D02*
X123388571Y-99434819D01*
X123388571Y-99434819D02*
X123388571Y-98434819D01*
X122912380Y-98911009D02*
X122579047Y-98911009D01*
X122436190Y-99434819D02*
X122912380Y-99434819D01*
X122912380Y-99434819D02*
X122912380Y-98434819D01*
X122912380Y-98434819D02*
X122436190Y-98434819D01*
X121436190Y-99434819D02*
X121769523Y-98958628D01*
X122007618Y-99434819D02*
X122007618Y-98434819D01*
X122007618Y-98434819D02*
X121626666Y-98434819D01*
X121626666Y-98434819D02*
X121531428Y-98482438D01*
X121531428Y-98482438D02*
X121483809Y-98530057D01*
X121483809Y-98530057D02*
X121436190Y-98625295D01*
X121436190Y-98625295D02*
X121436190Y-98768152D01*
X121436190Y-98768152D02*
X121483809Y-98863390D01*
X121483809Y-98863390D02*
X121531428Y-98911009D01*
X121531428Y-98911009D02*
X121626666Y-98958628D01*
X121626666Y-98958628D02*
X122007618Y-98958628D01*
X120388570Y-98434819D02*
X120055237Y-99434819D01*
X120055237Y-99434819D02*
X119721904Y-98434819D01*
X118864761Y-99434819D02*
X119436189Y-99434819D01*
X119150475Y-99434819D02*
X119150475Y-98434819D01*
X119150475Y-98434819D02*
X119245713Y-98577676D01*
X119245713Y-98577676D02*
X119340951Y-98672914D01*
X119340951Y-98672914D02*
X119436189Y-98720533D01*
X118436189Y-99339580D02*
X118388570Y-99387200D01*
X118388570Y-99387200D02*
X118436189Y-99434819D01*
X118436189Y-99434819D02*
X118483808Y-99387200D01*
X118483808Y-99387200D02*
X118436189Y-99339580D01*
X118436189Y-99339580D02*
X118436189Y-99434819D01*
X117769523Y-98434819D02*
X117674285Y-98434819D01*
X117674285Y-98434819D02*
X117579047Y-98482438D01*
X117579047Y-98482438D02*
X117531428Y-98530057D01*
X117531428Y-98530057D02*
X117483809Y-98625295D01*
X117483809Y-98625295D02*
X117436190Y-98815771D01*
X117436190Y-98815771D02*
X117436190Y-99053866D01*
X117436190Y-99053866D02*
X117483809Y-99244342D01*
X117483809Y-99244342D02*
X117531428Y-99339580D01*
X117531428Y-99339580D02*
X117579047Y-99387200D01*
X117579047Y-99387200D02*
X117674285Y-99434819D01*
X117674285Y-99434819D02*
X117769523Y-99434819D01*
X117769523Y-99434819D02*
X117864761Y-99387200D01*
X117864761Y-99387200D02*
X117912380Y-99339580D01*
X117912380Y-99339580D02*
X117959999Y-99244342D01*
X117959999Y-99244342D02*
X118007618Y-99053866D01*
X118007618Y-99053866D02*
X118007618Y-98815771D01*
X118007618Y-98815771D02*
X117959999Y-98625295D01*
X117959999Y-98625295D02*
X117912380Y-98530057D01*
X117912380Y-98530057D02*
X117864761Y-98482438D01*
X117864761Y-98482438D02*
X117769523Y-98434819D01*
M02*
