G04 #@! TF.GenerationSoftware,KiCad,Pcbnew,7.0.10*
G04 #@! TF.CreationDate,2024-04-16T19:30:50+12:00*
G04 #@! TF.ProjectId,KiwiEFIvr1815_0.1,4b697769-4546-4497-9672-313831355f30,rev?*
G04 #@! TF.SameCoordinates,Original*
G04 #@! TF.FileFunction,Copper,L2,Bot*
G04 #@! TF.FilePolarity,Positive*
%FSLAX46Y46*%
G04 Gerber Fmt 4.6, Leading zero omitted, Abs format (unit mm)*
G04 Created by KiCad (PCBNEW 7.0.10) date 2024-04-16 19:30:50*
%MOMM*%
%LPD*%
G01*
G04 APERTURE LIST*
G04 #@! TA.AperFunction,ComponentPad*
%ADD10O,2.400000X1.600000*%
G04 #@! TD*
G04 #@! TA.AperFunction,ComponentPad*
%ADD11R,2.400000X1.600000*%
G04 #@! TD*
G04 #@! TA.AperFunction,ViaPad*
%ADD12C,0.800000*%
G04 #@! TD*
G04 #@! TA.AperFunction,Conductor*
%ADD13C,0.500000*%
G04 #@! TD*
G04 #@! TA.AperFunction,Conductor*
%ADD14C,0.800000*%
G04 #@! TD*
G04 #@! TA.AperFunction,Conductor*
%ADD15C,0.250000*%
G04 #@! TD*
G04 APERTURE END LIST*
D10*
X128140000Y-84020000D03*
X120520000Y-91640000D03*
X128140000Y-86560000D03*
X120520000Y-89100000D03*
X128140000Y-89100000D03*
X120520000Y-86560000D03*
X128140000Y-91640000D03*
D11*
X120520000Y-84020000D03*
D12*
X116332000Y-97536000D03*
X113538000Y-76708000D03*
X125984000Y-75946000D03*
X133096000Y-86868000D03*
X113957990Y-97506452D03*
X134239000Y-97028000D03*
X134492997Y-91948000D03*
X125358000Y-92828000D03*
X113728500Y-93154500D03*
X116205000Y-95631000D03*
X126111000Y-95631000D03*
X130048000Y-93726000D03*
X118872000Y-93726000D03*
X128903485Y-82423272D03*
X131318000Y-91948000D03*
X124333000Y-82931000D03*
X134874000Y-82677000D03*
X125984000Y-77724000D03*
X115824000Y-83566000D03*
X131318000Y-86106000D03*
X135128000Y-78105000D03*
X131191000Y-78232000D03*
X126619000Y-85217000D03*
X114427000Y-83947000D03*
X127508000Y-78359000D03*
X129667000Y-78270990D03*
X131399000Y-80264000D03*
X127508000Y-80264000D03*
X132588000Y-77380000D03*
X129402998Y-77306456D03*
X135128000Y-79121000D03*
X128524000Y-79121000D03*
X134493000Y-86995000D03*
X132461000Y-80354000D03*
D13*
X125358000Y-92828000D02*
X124958001Y-93227999D01*
X124958001Y-93227999D02*
X119643999Y-93227999D01*
X119643999Y-93227999D02*
X119170501Y-92754501D01*
X119170501Y-92754501D02*
X114128499Y-92754501D01*
X114128499Y-92754501D02*
X113728500Y-93154500D01*
X116205000Y-95631000D02*
X126111000Y-95631000D01*
X129648001Y-94125999D02*
X130048000Y-93726000D01*
X118872000Y-93726000D02*
X119271999Y-94125999D01*
X119271999Y-94125999D02*
X129648001Y-94125999D01*
X130175000Y-93599000D02*
X130048000Y-93726000D01*
X130175000Y-83129102D02*
X130175000Y-93599000D01*
X128903485Y-82423272D02*
X129469170Y-82423272D01*
X129469170Y-82423272D02*
X130175000Y-83129102D01*
D14*
X124333000Y-82931000D02*
X124732999Y-82531001D01*
X125984000Y-78289685D02*
X124732999Y-79540686D01*
X125984000Y-77724000D02*
X125984000Y-78289685D01*
X124732999Y-79540686D02*
X124732999Y-82060999D01*
X124732999Y-82060999D02*
X124732999Y-82531001D01*
X124732999Y-79774999D02*
X124732999Y-82060999D01*
X124587000Y-79629000D02*
X124732999Y-79774999D01*
X116586000Y-79629000D02*
X124587000Y-79629000D01*
X115824000Y-83566000D02*
X115824000Y-80391000D01*
X115824000Y-80391000D02*
X116586000Y-79629000D01*
X134874000Y-82042000D02*
X134874000Y-82677000D01*
X134239000Y-81407000D02*
X134874000Y-82042000D01*
X124732999Y-82531001D02*
X124732999Y-81407000D01*
X124732999Y-81407000D02*
X134239000Y-81407000D01*
X131318000Y-91948000D02*
X131318000Y-86106000D01*
D15*
X131318000Y-78105000D02*
X131191000Y-78232000D01*
D13*
X123825000Y-85217000D02*
X126619000Y-85217000D01*
X123063000Y-84455000D02*
X123825000Y-85217000D01*
X116586000Y-85090000D02*
X117221000Y-84455000D01*
X117221000Y-84455000D02*
X117221000Y-81661000D01*
X117221000Y-81661000D02*
X117729000Y-81153000D01*
X117729000Y-81153000D02*
X122428000Y-81153000D01*
X123063000Y-81788000D02*
X123063000Y-84455000D01*
X122428000Y-81153000D02*
X123063000Y-81788000D01*
X135001000Y-78232000D02*
X135128000Y-78105000D01*
X131191000Y-78232000D02*
X135001000Y-78232000D01*
X114427000Y-84709000D02*
X114808000Y-85090000D01*
X114427000Y-83947000D02*
X114427000Y-84709000D01*
X114808000Y-85090000D02*
X116586000Y-85090000D01*
X129101315Y-78270990D02*
X129667000Y-78270990D01*
X127508000Y-78359000D02*
X127596010Y-78270990D01*
X127596010Y-78270990D02*
X129101315Y-78270990D01*
X127508000Y-80264000D02*
X131399000Y-80264000D01*
X129476542Y-77380000D02*
X129402998Y-77306456D01*
X132588000Y-77380000D02*
X129476542Y-77380000D01*
X134562315Y-79121000D02*
X135128000Y-79121000D01*
X128524000Y-79121000D02*
X134562315Y-79121000D01*
D15*
X132551000Y-80264000D02*
X132461000Y-80354000D01*
X135128000Y-80264000D02*
X132551000Y-80264000D01*
X135636000Y-80772000D02*
X135128000Y-80264000D01*
X135636000Y-86614000D02*
X135636000Y-80772000D01*
X134493000Y-86995000D02*
X135255000Y-86995000D01*
X135255000Y-86995000D02*
X135636000Y-86614000D01*
G04 #@! TA.AperFunction,Conductor*
G36*
X135832121Y-75204002D02*
G01*
X135878614Y-75257658D01*
X135890000Y-75310000D01*
X135890000Y-77288369D01*
X135869998Y-77356490D01*
X135816342Y-77402983D01*
X135746068Y-77413087D01*
X135689939Y-77390305D01*
X135584752Y-77313882D01*
X135410288Y-77236206D01*
X135223487Y-77196500D01*
X135032513Y-77196500D01*
X134845711Y-77236206D01*
X134671247Y-77313882D01*
X134516749Y-77426131D01*
X134516749Y-77426132D01*
X134516747Y-77426133D01*
X134516747Y-77426134D01*
X134511634Y-77431811D01*
X134451190Y-77469050D01*
X134418000Y-77473500D01*
X133624782Y-77473500D01*
X133556661Y-77453498D01*
X133510168Y-77399842D01*
X133499472Y-77360670D01*
X133498607Y-77352444D01*
X133481542Y-77190072D01*
X133422527Y-77008444D01*
X133327040Y-76843056D01*
X133327038Y-76843054D01*
X133327034Y-76843048D01*
X133199255Y-76701135D01*
X133044752Y-76588882D01*
X132870288Y-76511206D01*
X132683487Y-76471500D01*
X132492513Y-76471500D01*
X132305711Y-76511206D01*
X132131245Y-76588883D01*
X132119476Y-76597435D01*
X132052609Y-76621294D01*
X132045413Y-76621500D01*
X130046809Y-76621500D01*
X129978688Y-76601498D01*
X129972748Y-76597436D01*
X129859750Y-76515338D01*
X129685286Y-76437662D01*
X129498485Y-76397956D01*
X129307511Y-76397956D01*
X129120709Y-76437662D01*
X128946245Y-76515338D01*
X128791742Y-76627591D01*
X128663963Y-76769504D01*
X128663956Y-76769514D01*
X128568474Y-76934894D01*
X128568471Y-76934901D01*
X128509455Y-77116528D01*
X128496877Y-77236206D01*
X128489494Y-77306456D01*
X128494327Y-77352444D01*
X128496522Y-77373319D01*
X128483750Y-77443158D01*
X128435248Y-77495004D01*
X128371212Y-77512490D01*
X127867122Y-77512490D01*
X127815874Y-77501597D01*
X127790290Y-77490206D01*
X127603487Y-77450500D01*
X127412513Y-77450500D01*
X127225711Y-77490206D01*
X127051246Y-77567883D01*
X127048981Y-77569191D01*
X127047504Y-77569549D01*
X127045216Y-77570568D01*
X127045029Y-77570149D01*
X126979985Y-77585928D01*
X126912893Y-77562707D01*
X126869007Y-77506899D01*
X126866149Y-77499008D01*
X126856415Y-77469050D01*
X126818527Y-77352444D01*
X126723040Y-77187056D01*
X126723038Y-77187054D01*
X126723034Y-77187048D01*
X126595255Y-77045135D01*
X126440752Y-76932882D01*
X126266288Y-76855206D01*
X126079487Y-76815500D01*
X125888513Y-76815500D01*
X125701711Y-76855206D01*
X125527247Y-76932882D01*
X125372744Y-77045135D01*
X125244965Y-77187048D01*
X125244958Y-77187058D01*
X125149476Y-77352438D01*
X125149473Y-77352444D01*
X125137171Y-77390305D01*
X125090457Y-77534072D01*
X125070496Y-77724000D01*
X125074810Y-77765045D01*
X125075500Y-77778215D01*
X125075500Y-77861182D01*
X125055498Y-77929303D01*
X125038595Y-77950277D01*
X124305277Y-78683595D01*
X124242965Y-78717621D01*
X124216182Y-78720500D01*
X116667417Y-78720500D01*
X116647707Y-78718949D01*
X116633806Y-78716747D01*
X116568435Y-78720174D01*
X116565518Y-78720327D01*
X116558926Y-78720500D01*
X116538390Y-78720500D01*
X116538385Y-78720500D01*
X116538371Y-78720501D01*
X116517966Y-78722645D01*
X116511398Y-78723162D01*
X116443102Y-78726742D01*
X116443098Y-78726742D01*
X116443097Y-78726743D01*
X116429503Y-78730385D01*
X116410079Y-78733985D01*
X116396072Y-78735457D01*
X116396071Y-78735458D01*
X116331029Y-78756591D01*
X116324707Y-78758463D01*
X116258631Y-78776169D01*
X116258626Y-78776170D01*
X116246084Y-78782561D01*
X116227828Y-78790123D01*
X116214446Y-78794471D01*
X116214442Y-78794473D01*
X116155222Y-78828663D01*
X116149430Y-78831808D01*
X116088469Y-78862871D01*
X116088466Y-78862873D01*
X116077522Y-78871734D01*
X116061249Y-78882918D01*
X116049060Y-78889956D01*
X116049050Y-78889964D01*
X115998221Y-78935728D01*
X115993219Y-78940001D01*
X115977260Y-78952926D01*
X115977255Y-78952931D01*
X115962728Y-78967457D01*
X115957949Y-78971992D01*
X115907134Y-79017746D01*
X115898858Y-79029136D01*
X115886022Y-79044163D01*
X115239163Y-79691022D01*
X115224136Y-79703858D01*
X115212746Y-79712134D01*
X115166992Y-79762949D01*
X115162457Y-79767728D01*
X115147931Y-79782255D01*
X115147926Y-79782260D01*
X115135001Y-79798219D01*
X115130728Y-79803221D01*
X115084964Y-79854050D01*
X115084956Y-79854060D01*
X115077918Y-79866249D01*
X115066734Y-79882522D01*
X115057873Y-79893465D01*
X115057871Y-79893469D01*
X115026815Y-79954420D01*
X115023668Y-79960216D01*
X114989471Y-80019446D01*
X114985119Y-80032840D01*
X114977559Y-80051090D01*
X114971173Y-80063623D01*
X114971172Y-80063627D01*
X114953472Y-80129678D01*
X114951600Y-80135996D01*
X114930458Y-80201070D01*
X114928985Y-80215079D01*
X114925384Y-80234509D01*
X114921742Y-80248102D01*
X114918162Y-80316398D01*
X114917645Y-80322966D01*
X114915501Y-80343371D01*
X114915500Y-80343398D01*
X114915500Y-80363924D01*
X114915327Y-80370519D01*
X114911747Y-80438808D01*
X114913949Y-80452706D01*
X114915500Y-80472417D01*
X114915500Y-82975994D01*
X114895498Y-83044115D01*
X114841842Y-83090608D01*
X114771568Y-83100712D01*
X114738252Y-83091101D01*
X114709290Y-83078206D01*
X114522487Y-83038500D01*
X114331513Y-83038500D01*
X114144711Y-83078206D01*
X113970247Y-83155882D01*
X113815744Y-83268135D01*
X113687965Y-83410048D01*
X113687958Y-83410058D01*
X113592476Y-83575438D01*
X113592473Y-83575444D01*
X113581289Y-83609864D01*
X113533457Y-83757072D01*
X113513496Y-83947000D01*
X113533457Y-84136927D01*
X113569576Y-84248087D01*
X113592473Y-84318556D01*
X113651619Y-84421000D01*
X113668500Y-84483999D01*
X113668500Y-84644559D01*
X113667170Y-84662819D01*
X113663659Y-84686786D01*
X113663659Y-84686795D01*
X113668020Y-84736633D01*
X113668500Y-84747616D01*
X113668500Y-84753185D01*
X113672135Y-84784289D01*
X113672507Y-84787932D01*
X113679111Y-84863418D01*
X113680596Y-84870606D01*
X113680531Y-84870619D01*
X113682165Y-84877989D01*
X113682229Y-84877975D01*
X113683921Y-84885116D01*
X113709846Y-84956342D01*
X113711049Y-84959804D01*
X113734884Y-85031735D01*
X113737987Y-85038388D01*
X113737926Y-85038416D01*
X113741211Y-85045202D01*
X113741270Y-85045173D01*
X113744563Y-85051730D01*
X113786232Y-85115084D01*
X113788171Y-85118127D01*
X113825325Y-85178362D01*
X113827972Y-85182654D01*
X113832522Y-85188408D01*
X113832468Y-85188450D01*
X113837228Y-85194292D01*
X113837279Y-85194250D01*
X113841997Y-85199872D01*
X113897155Y-85251911D01*
X113899784Y-85254465D01*
X114226092Y-85580773D01*
X114238065Y-85594627D01*
X114252531Y-85614058D01*
X114290874Y-85646231D01*
X114298967Y-85653648D01*
X114302899Y-85657580D01*
X114327452Y-85676994D01*
X114330284Y-85679300D01*
X114388360Y-85728032D01*
X114388366Y-85728035D01*
X114394495Y-85732067D01*
X114394457Y-85732123D01*
X114400813Y-85736172D01*
X114400849Y-85736115D01*
X114407094Y-85739967D01*
X114475841Y-85772023D01*
X114479011Y-85773557D01*
X114546812Y-85807609D01*
X114546814Y-85807609D01*
X114553707Y-85810118D01*
X114553684Y-85810180D01*
X114560810Y-85812657D01*
X114560831Y-85812595D01*
X114567793Y-85814902D01*
X114642052Y-85830234D01*
X114645544Y-85831008D01*
X114719344Y-85848500D01*
X114719346Y-85848500D01*
X114726632Y-85849352D01*
X114726624Y-85849418D01*
X114734122Y-85850184D01*
X114734128Y-85850118D01*
X114741435Y-85850756D01*
X114741442Y-85850758D01*
X114816185Y-85848583D01*
X114817224Y-85848553D01*
X114820888Y-85848500D01*
X116521559Y-85848500D01*
X116539819Y-85849830D01*
X116545489Y-85850660D01*
X116563789Y-85853341D01*
X116613646Y-85848978D01*
X116624627Y-85848500D01*
X116630175Y-85848500D01*
X116630180Y-85848500D01*
X116661287Y-85844863D01*
X116664889Y-85844495D01*
X116740426Y-85837887D01*
X116740430Y-85837885D01*
X116747618Y-85836402D01*
X116747631Y-85836468D01*
X116754987Y-85834836D01*
X116754972Y-85834771D01*
X116762102Y-85833080D01*
X116762113Y-85833079D01*
X116833400Y-85807132D01*
X116836769Y-85805961D01*
X116908738Y-85782114D01*
X116908747Y-85782108D01*
X116915389Y-85779012D01*
X116915418Y-85779074D01*
X116922203Y-85775789D01*
X116922173Y-85775729D01*
X116928724Y-85772437D01*
X116928732Y-85772435D01*
X116992091Y-85730761D01*
X116995161Y-85728806D01*
X116996418Y-85728031D01*
X117059651Y-85689030D01*
X117059659Y-85689021D01*
X117065408Y-85684477D01*
X117065450Y-85684531D01*
X117071289Y-85679775D01*
X117071246Y-85679723D01*
X117076864Y-85675007D01*
X117076874Y-85675001D01*
X117128961Y-85619790D01*
X117131448Y-85617231D01*
X117711778Y-85036901D01*
X117725617Y-85024941D01*
X117745058Y-85010469D01*
X117777227Y-84972130D01*
X117784645Y-84964034D01*
X117788581Y-84960100D01*
X117808025Y-84935507D01*
X117810265Y-84932757D01*
X117859032Y-84874640D01*
X117859033Y-84874636D01*
X117859036Y-84874634D01*
X117863070Y-84868502D01*
X117863127Y-84868539D01*
X117867171Y-84862191D01*
X117867112Y-84862155D01*
X117870965Y-84855907D01*
X117870967Y-84855905D01*
X117903035Y-84787132D01*
X117904557Y-84783989D01*
X117938609Y-84716188D01*
X117938609Y-84716184D01*
X117938611Y-84716182D01*
X117941119Y-84709291D01*
X117941184Y-84709314D01*
X117943658Y-84702197D01*
X117943594Y-84702176D01*
X117945903Y-84695207D01*
X117961238Y-84620936D01*
X117962022Y-84617397D01*
X117979500Y-84543656D01*
X117979500Y-84543655D01*
X117980352Y-84536368D01*
X117980419Y-84536375D01*
X117981185Y-84528877D01*
X117981119Y-84528872D01*
X117981757Y-84521565D01*
X117981759Y-84521558D01*
X117979553Y-84445740D01*
X117979500Y-84442076D01*
X117979500Y-82037500D01*
X117999502Y-81969379D01*
X118053158Y-81922886D01*
X118105500Y-81911500D01*
X122061629Y-81911500D01*
X122129750Y-81931502D01*
X122150724Y-81948405D01*
X122267595Y-82065276D01*
X122301621Y-82127588D01*
X122304500Y-82154371D01*
X122304500Y-82774543D01*
X122284498Y-82842664D01*
X122230842Y-82889157D01*
X122160568Y-82899261D01*
X122095988Y-82869767D01*
X122089706Y-82863038D01*
X122089277Y-82863468D01*
X122082906Y-82857097D01*
X121965965Y-82769555D01*
X121829093Y-82718505D01*
X121768597Y-82712000D01*
X120774000Y-82712000D01*
X120774000Y-83708314D01*
X120758045Y-83692359D01*
X120645148Y-83634835D01*
X120551481Y-83620000D01*
X120488519Y-83620000D01*
X120394852Y-83634835D01*
X120281955Y-83692359D01*
X120266000Y-83708314D01*
X120266000Y-82712000D01*
X119271402Y-82712000D01*
X119210906Y-82718505D01*
X119074035Y-82769555D01*
X119074034Y-82769555D01*
X118957095Y-82857095D01*
X118869555Y-82974034D01*
X118869555Y-82974035D01*
X118818505Y-83110906D01*
X118812000Y-83171402D01*
X118812000Y-83766000D01*
X120208314Y-83766000D01*
X120192359Y-83781955D01*
X120134835Y-83894852D01*
X120115014Y-84020000D01*
X120134835Y-84145148D01*
X120192359Y-84258045D01*
X120208314Y-84274000D01*
X118812000Y-84274000D01*
X118812000Y-84868597D01*
X118818505Y-84929093D01*
X118869555Y-85065964D01*
X118869555Y-85065965D01*
X118957095Y-85182904D01*
X119074034Y-85270444D01*
X119210905Y-85321494D01*
X119220825Y-85322561D01*
X119286417Y-85349731D01*
X119326907Y-85408049D01*
X119329441Y-85479001D01*
X119293213Y-85540058D01*
X119279633Y-85551047D01*
X119275707Y-85553795D01*
X119275697Y-85553804D01*
X119113804Y-85715697D01*
X119113799Y-85715703D01*
X118982477Y-85903250D01*
X118885717Y-86110753D01*
X118885715Y-86110759D01*
X118830685Y-86316134D01*
X118826457Y-86331913D01*
X118806502Y-86560000D01*
X118826457Y-86788087D01*
X118842795Y-86849060D01*
X118885715Y-87009240D01*
X118885717Y-87009246D01*
X118897153Y-87033770D01*
X118982477Y-87216749D01*
X119113802Y-87404300D01*
X119275700Y-87566198D01*
X119463251Y-87697523D01*
X119498359Y-87713894D01*
X119502457Y-87715805D01*
X119555742Y-87762722D01*
X119575203Y-87830999D01*
X119554661Y-87898959D01*
X119502457Y-87944195D01*
X119463250Y-87962477D01*
X119275703Y-88093799D01*
X119275697Y-88093804D01*
X119113804Y-88255697D01*
X119113799Y-88255703D01*
X118982477Y-88443250D01*
X118885717Y-88650753D01*
X118885715Y-88650759D01*
X118833400Y-88846000D01*
X118826457Y-88871913D01*
X118806502Y-89100000D01*
X118826457Y-89328087D01*
X118885716Y-89549243D01*
X118982477Y-89756749D01*
X119113802Y-89944300D01*
X119275700Y-90106198D01*
X119463251Y-90237523D01*
X119503045Y-90256079D01*
X119503047Y-90256080D01*
X119556332Y-90302996D01*
X119575794Y-90371273D01*
X119555253Y-90439233D01*
X119503051Y-90484468D01*
X119463504Y-90502910D01*
X119276025Y-90634184D01*
X119276019Y-90634189D01*
X119114189Y-90796019D01*
X119114184Y-90796025D01*
X118982912Y-90983501D01*
X118886188Y-91190926D01*
X118886186Y-91190931D01*
X118833917Y-91386000D01*
X120208314Y-91386000D01*
X120192359Y-91401955D01*
X120134835Y-91514852D01*
X120115014Y-91640000D01*
X120134835Y-91765148D01*
X120192359Y-91878045D01*
X120208314Y-91894000D01*
X118833917Y-91894000D01*
X118796091Y-91943296D01*
X118794331Y-91941945D01*
X118777253Y-91967172D01*
X118711986Y-91995112D01*
X118697042Y-91996001D01*
X114192940Y-91996001D01*
X114174680Y-91994671D01*
X114150711Y-91991160D01*
X114150710Y-91991160D01*
X114110580Y-91994671D01*
X114100853Y-91995522D01*
X114089872Y-91996001D01*
X114084315Y-91996001D01*
X114053212Y-91999636D01*
X114049569Y-92000008D01*
X113974074Y-92006613D01*
X113966888Y-92008097D01*
X113966875Y-92008034D01*
X113959502Y-92009669D01*
X113959517Y-92009732D01*
X113952380Y-92011423D01*
X113881132Y-92037354D01*
X113877675Y-92038556D01*
X113832916Y-92053388D01*
X113805761Y-92062387D01*
X113805759Y-92062387D01*
X113805759Y-92062388D01*
X113799111Y-92065488D01*
X113799082Y-92065427D01*
X113792291Y-92068715D01*
X113792321Y-92068774D01*
X113785768Y-92072064D01*
X113722419Y-92113730D01*
X113719329Y-92115698D01*
X113654850Y-92155469D01*
X113649087Y-92160026D01*
X113649046Y-92159974D01*
X113643203Y-92164734D01*
X113643245Y-92164784D01*
X113637627Y-92169497D01*
X113585586Y-92224657D01*
X113583033Y-92227284D01*
X113572167Y-92238150D01*
X113509855Y-92272176D01*
X113509272Y-92272301D01*
X113446212Y-92285706D01*
X113271749Y-92363381D01*
X113271748Y-92363382D01*
X113117244Y-92475635D01*
X112989465Y-92617548D01*
X112989458Y-92617558D01*
X112893976Y-92782938D01*
X112893973Y-92782945D01*
X112834957Y-92964572D01*
X112814996Y-93154500D01*
X112834957Y-93344427D01*
X112838212Y-93354444D01*
X112893973Y-93526056D01*
X112893976Y-93526061D01*
X112989458Y-93691441D01*
X112989465Y-93691451D01*
X113117244Y-93833364D01*
X113117247Y-93833366D01*
X113271748Y-93945618D01*
X113446212Y-94023294D01*
X113633013Y-94063000D01*
X113823987Y-94063000D01*
X114010788Y-94023294D01*
X114185252Y-93945618D01*
X114339753Y-93833366D01*
X114467540Y-93691444D01*
X114534192Y-93576000D01*
X114585575Y-93527007D01*
X114643311Y-93513001D01*
X117840946Y-93513001D01*
X117909067Y-93533003D01*
X117955560Y-93586659D01*
X117966256Y-93652172D01*
X117958496Y-93726000D01*
X117978457Y-93915927D01*
X118008526Y-94008470D01*
X118037473Y-94097556D01*
X118037476Y-94097561D01*
X118132958Y-94262941D01*
X118132965Y-94262951D01*
X118260744Y-94404864D01*
X118260747Y-94404866D01*
X118415248Y-94517118D01*
X118589712Y-94594794D01*
X118638787Y-94605225D01*
X118645005Y-94606547D01*
X118707479Y-94640276D01*
X118711409Y-94644801D01*
X118711495Y-94644721D01*
X118721567Y-94655397D01*
X118720629Y-94656281D01*
X118755763Y-94709092D01*
X118756887Y-94780080D01*
X118719454Y-94840406D01*
X118655348Y-94870918D01*
X118635444Y-94872500D01*
X116747587Y-94872500D01*
X116679466Y-94852498D01*
X116673524Y-94848435D01*
X116661754Y-94839883D01*
X116605890Y-94815011D01*
X116487288Y-94762206D01*
X116300487Y-94722500D01*
X116109513Y-94722500D01*
X115922711Y-94762206D01*
X115748247Y-94839882D01*
X115593744Y-94952135D01*
X115465965Y-95094048D01*
X115465958Y-95094058D01*
X115370476Y-95259438D01*
X115370473Y-95259445D01*
X115311457Y-95441072D01*
X115291496Y-95631000D01*
X115311457Y-95820927D01*
X115341526Y-95913470D01*
X115370473Y-96002556D01*
X115370476Y-96002561D01*
X115465958Y-96167941D01*
X115465965Y-96167951D01*
X115593744Y-96309864D01*
X115593747Y-96309866D01*
X115748248Y-96422118D01*
X115922712Y-96499794D01*
X116109513Y-96539500D01*
X116300487Y-96539500D01*
X116487288Y-96499794D01*
X116661752Y-96422118D01*
X116673524Y-96413564D01*
X116740391Y-96389706D01*
X116747587Y-96389500D01*
X125568413Y-96389500D01*
X125636534Y-96409502D01*
X125642471Y-96413562D01*
X125654248Y-96422118D01*
X125828712Y-96499794D01*
X126015513Y-96539500D01*
X126206487Y-96539500D01*
X126393288Y-96499794D01*
X126567752Y-96422118D01*
X126722253Y-96309866D01*
X126850040Y-96167944D01*
X126945527Y-96002556D01*
X127004542Y-95820928D01*
X127024504Y-95631000D01*
X127004542Y-95441072D01*
X126945527Y-95259444D01*
X126850040Y-95094056D01*
X126850037Y-95094053D01*
X126846157Y-95088712D01*
X126847369Y-95087831D01*
X126820001Y-95030797D01*
X126828767Y-94960344D01*
X126874232Y-94905815D01*
X126941961Y-94884522D01*
X126944355Y-94884499D01*
X129583560Y-94884499D01*
X129601820Y-94885829D01*
X129607490Y-94886659D01*
X129625790Y-94889340D01*
X129675647Y-94884977D01*
X129686628Y-94884499D01*
X129692176Y-94884499D01*
X129692181Y-94884499D01*
X129723288Y-94880862D01*
X129726890Y-94880494D01*
X129802427Y-94873886D01*
X129802431Y-94873884D01*
X129809619Y-94872401D01*
X129809632Y-94872467D01*
X129816988Y-94870835D01*
X129816973Y-94870770D01*
X129824103Y-94869079D01*
X129824114Y-94869078D01*
X129895401Y-94843131D01*
X129898770Y-94841960D01*
X129970739Y-94818113D01*
X129970748Y-94818107D01*
X129977390Y-94815011D01*
X129977419Y-94815073D01*
X129984204Y-94811788D01*
X129984174Y-94811728D01*
X129990725Y-94808436D01*
X129990733Y-94808434D01*
X130054092Y-94766760D01*
X130057162Y-94764805D01*
X130061376Y-94762206D01*
X130121652Y-94725029D01*
X130121660Y-94725020D01*
X130127409Y-94720476D01*
X130127451Y-94720530D01*
X130133290Y-94715774D01*
X130133247Y-94715722D01*
X130138865Y-94711006D01*
X130138875Y-94711000D01*
X130190962Y-94655789D01*
X130193449Y-94653230D01*
X130204332Y-94642347D01*
X130266642Y-94608323D01*
X130266999Y-94608246D01*
X130330288Y-94594794D01*
X130504752Y-94517118D01*
X130659253Y-94404866D01*
X130787040Y-94262944D01*
X130882527Y-94097556D01*
X130941542Y-93915928D01*
X130961504Y-93726000D01*
X130941542Y-93536072D01*
X130939667Y-93530301D01*
X130933500Y-93491364D01*
X130933500Y-92950665D01*
X130953502Y-92882544D01*
X131007158Y-92836051D01*
X131077432Y-92825947D01*
X131085698Y-92827419D01*
X131222509Y-92856500D01*
X131222513Y-92856500D01*
X131413487Y-92856500D01*
X131600288Y-92816794D01*
X131774752Y-92739118D01*
X131929253Y-92626866D01*
X131937643Y-92617548D01*
X132057034Y-92484951D01*
X132057035Y-92484949D01*
X132057040Y-92484944D01*
X132152527Y-92319556D01*
X132211542Y-92137928D01*
X132219482Y-92062387D01*
X132226500Y-91995611D01*
X132226968Y-91991160D01*
X132231504Y-91948000D01*
X132227190Y-91906954D01*
X132226500Y-91893784D01*
X132226500Y-86160215D01*
X132227190Y-86147045D01*
X132231504Y-86106000D01*
X132211542Y-85916072D01*
X132152527Y-85734444D01*
X132057040Y-85569056D01*
X132057038Y-85569054D01*
X132057034Y-85569048D01*
X131929255Y-85427135D01*
X131774752Y-85314882D01*
X131600288Y-85237206D01*
X131413487Y-85197500D01*
X131222513Y-85197500D01*
X131085697Y-85226581D01*
X131014906Y-85221179D01*
X130958274Y-85178362D01*
X130933780Y-85111724D01*
X130933500Y-85103334D01*
X130933500Y-83193537D01*
X130934831Y-83175274D01*
X130937207Y-83159053D01*
X130938341Y-83151313D01*
X130933979Y-83101453D01*
X130933500Y-83090473D01*
X130933500Y-83084927D01*
X130933500Y-83084922D01*
X130929863Y-83053814D01*
X130929492Y-83050182D01*
X130922887Y-82974675D01*
X130922886Y-82974671D01*
X130921403Y-82967489D01*
X130921469Y-82967475D01*
X130919839Y-82960121D01*
X130919773Y-82960137D01*
X130918079Y-82952992D01*
X130918079Y-82952989D01*
X130892137Y-82881714D01*
X130890963Y-82878336D01*
X130888498Y-82870898D01*
X130867114Y-82806363D01*
X130867112Y-82806360D01*
X130864014Y-82799717D01*
X130864076Y-82799688D01*
X130860787Y-82792895D01*
X130860727Y-82792926D01*
X130857433Y-82786366D01*
X130840424Y-82760506D01*
X130815741Y-82722977D01*
X130813831Y-82719978D01*
X130774029Y-82655451D01*
X130774026Y-82655448D01*
X130769483Y-82649703D01*
X130769536Y-82649660D01*
X130764768Y-82643807D01*
X130764718Y-82643850D01*
X130759998Y-82638225D01*
X130704845Y-82586190D01*
X130702217Y-82583637D01*
X130649175Y-82530595D01*
X130615149Y-82468283D01*
X130620214Y-82397468D01*
X130662761Y-82340632D01*
X130729281Y-82315821D01*
X130738270Y-82315500D01*
X133810497Y-82315500D01*
X133878618Y-82335502D01*
X133899592Y-82352405D01*
X133928595Y-82381408D01*
X133962621Y-82443720D01*
X133965500Y-82470503D01*
X133965500Y-82622784D01*
X133964810Y-82635954D01*
X133960496Y-82676999D01*
X133965500Y-82724611D01*
X133980457Y-82866927D01*
X134008421Y-82952989D01*
X134039473Y-83048556D01*
X134060469Y-83084922D01*
X134134958Y-83213941D01*
X134134965Y-83213951D01*
X134262744Y-83355864D01*
X134323999Y-83400368D01*
X134417248Y-83468118D01*
X134591712Y-83545794D01*
X134778513Y-83585500D01*
X134876500Y-83585500D01*
X134944621Y-83605502D01*
X134991114Y-83659158D01*
X135002500Y-83711500D01*
X135002500Y-86033344D01*
X134982498Y-86101465D01*
X134928842Y-86147958D01*
X134858568Y-86158062D01*
X134825251Y-86148451D01*
X134775288Y-86126206D01*
X134588487Y-86086500D01*
X134397513Y-86086500D01*
X134210711Y-86126206D01*
X134036247Y-86203882D01*
X133881744Y-86316135D01*
X133753965Y-86458048D01*
X133753958Y-86458058D01*
X133658476Y-86623438D01*
X133658473Y-86623445D01*
X133599457Y-86805072D01*
X133579496Y-86995000D01*
X133599457Y-87184927D01*
X133609797Y-87216749D01*
X133658473Y-87366556D01*
X133658476Y-87366561D01*
X133753958Y-87531941D01*
X133753965Y-87531951D01*
X133881744Y-87673864D01*
X133914308Y-87697523D01*
X134036248Y-87786118D01*
X134210712Y-87863794D01*
X134397513Y-87903500D01*
X134588487Y-87903500D01*
X134775288Y-87863794D01*
X134949752Y-87786118D01*
X135104253Y-87673866D01*
X135105643Y-87672321D01*
X135106674Y-87671686D01*
X135109163Y-87669446D01*
X135109572Y-87669900D01*
X135166086Y-87635078D01*
X135195321Y-87630689D01*
X135257525Y-87628733D01*
X135262988Y-87628562D01*
X135266945Y-87628500D01*
X135294851Y-87628500D01*
X135294856Y-87628500D01*
X135298867Y-87627992D01*
X135310699Y-87627061D01*
X135354889Y-87625673D01*
X135374347Y-87620019D01*
X135393694Y-87616013D01*
X135413797Y-87613474D01*
X135454910Y-87597195D01*
X135466130Y-87593353D01*
X135490913Y-87586154D01*
X135508591Y-87581019D01*
X135508595Y-87581017D01*
X135526026Y-87570708D01*
X135543780Y-87562009D01*
X135562617Y-87554552D01*
X135598392Y-87528558D01*
X135608298Y-87522051D01*
X135646362Y-87499542D01*
X135660685Y-87485218D01*
X135675714Y-87472381D01*
X135689944Y-87462043D01*
X135756811Y-87438188D01*
X135825962Y-87454271D01*
X135875440Y-87505187D01*
X135890000Y-87563983D01*
X135890000Y-99696000D01*
X135869998Y-99764121D01*
X135816342Y-99810614D01*
X135764000Y-99822000D01*
X111251000Y-99822000D01*
X111182879Y-99801998D01*
X111136386Y-99748342D01*
X111125000Y-99696000D01*
X111125000Y-75310000D01*
X111145002Y-75241879D01*
X111198658Y-75195386D01*
X111251000Y-75184000D01*
X135764000Y-75184000D01*
X135832121Y-75204002D01*
G37*
G04 #@! TD.AperFunction*
G04 #@! TA.AperFunction,Conductor*
G36*
X122401371Y-84858687D02*
G01*
X122448226Y-84903127D01*
X122463968Y-84928648D01*
X122468522Y-84934408D01*
X122468468Y-84934450D01*
X122473228Y-84940292D01*
X122473279Y-84940250D01*
X122477997Y-84945872D01*
X122477998Y-84945873D01*
X122477999Y-84945874D01*
X122505837Y-84972138D01*
X122533155Y-84997911D01*
X122535784Y-85000465D01*
X123243092Y-85707773D01*
X123255065Y-85721627D01*
X123264602Y-85734438D01*
X123269531Y-85741058D01*
X123307874Y-85773231D01*
X123315967Y-85780648D01*
X123319900Y-85784581D01*
X123319903Y-85784583D01*
X123344455Y-85803997D01*
X123347295Y-85806311D01*
X123405355Y-85855028D01*
X123405360Y-85855032D01*
X123405364Y-85855034D01*
X123411495Y-85859067D01*
X123411458Y-85859122D01*
X123417811Y-85863169D01*
X123417847Y-85863113D01*
X123424092Y-85866965D01*
X123424095Y-85866967D01*
X123492786Y-85898998D01*
X123496084Y-85900595D01*
X123501371Y-85903250D01*
X123563812Y-85934609D01*
X123563814Y-85934609D01*
X123570713Y-85937121D01*
X123570689Y-85937185D01*
X123577805Y-85939659D01*
X123577827Y-85939595D01*
X123584791Y-85941903D01*
X123659063Y-85957238D01*
X123662630Y-85958029D01*
X123736344Y-85975500D01*
X123736351Y-85975500D01*
X123743633Y-85976352D01*
X123743625Y-85976419D01*
X123751122Y-85977185D01*
X123751128Y-85977119D01*
X123758435Y-85977757D01*
X123758442Y-85977759D01*
X123833189Y-85975584D01*
X123834259Y-85975553D01*
X123837923Y-85975500D01*
X126076413Y-85975500D01*
X126144534Y-85995502D01*
X126150471Y-85999562D01*
X126162248Y-86008118D01*
X126336712Y-86085794D01*
X126373061Y-86093520D01*
X126435534Y-86127248D01*
X126469856Y-86189398D01*
X126468571Y-86249377D01*
X126446458Y-86331907D01*
X126446457Y-86331910D01*
X126446457Y-86331913D01*
X126426502Y-86560000D01*
X126446457Y-86788087D01*
X126462795Y-86849060D01*
X126505715Y-87009240D01*
X126505717Y-87009246D01*
X126517153Y-87033770D01*
X126602477Y-87216749D01*
X126733802Y-87404300D01*
X126895700Y-87566198D01*
X127083251Y-87697523D01*
X127122457Y-87715805D01*
X127123047Y-87716080D01*
X127176332Y-87762996D01*
X127195794Y-87831273D01*
X127175253Y-87899233D01*
X127123051Y-87944468D01*
X127083504Y-87962910D01*
X126896025Y-88094184D01*
X126896019Y-88094189D01*
X126734189Y-88256019D01*
X126734184Y-88256025D01*
X126602912Y-88443501D01*
X126506188Y-88650926D01*
X126506186Y-88650931D01*
X126453917Y-88846000D01*
X127828314Y-88846000D01*
X127812359Y-88861955D01*
X127754835Y-88974852D01*
X127735014Y-89100000D01*
X127754835Y-89225148D01*
X127812359Y-89338045D01*
X127828314Y-89354000D01*
X126453918Y-89354000D01*
X126506186Y-89549068D01*
X126506188Y-89549073D01*
X126602912Y-89756498D01*
X126734184Y-89943974D01*
X126734189Y-89943980D01*
X126896019Y-90105810D01*
X126896025Y-90105815D01*
X127083503Y-90237089D01*
X127123049Y-90255530D01*
X127176334Y-90302447D01*
X127195794Y-90370724D01*
X127175252Y-90438684D01*
X127123049Y-90483918D01*
X127083252Y-90502475D01*
X126895703Y-90633799D01*
X126895697Y-90633804D01*
X126733804Y-90795697D01*
X126733799Y-90795703D01*
X126602477Y-90983250D01*
X126505717Y-91190753D01*
X126505715Y-91190759D01*
X126453400Y-91386000D01*
X126446457Y-91411913D01*
X126426502Y-91640000D01*
X126446457Y-91868087D01*
X126473007Y-91967172D01*
X126505715Y-92089240D01*
X126505717Y-92089246D01*
X126602477Y-92296749D01*
X126727734Y-92475635D01*
X126733802Y-92484300D01*
X126895700Y-92646198D01*
X127083251Y-92777523D01*
X127290757Y-92874284D01*
X127511913Y-92933543D01*
X127682873Y-92948500D01*
X127682880Y-92948500D01*
X128597120Y-92948500D01*
X128597127Y-92948500D01*
X128768087Y-92933543D01*
X128989243Y-92874284D01*
X129196749Y-92777523D01*
X129218229Y-92762482D01*
X129285501Y-92739794D01*
X129354362Y-92757078D01*
X129402947Y-92808847D01*
X129416500Y-92865695D01*
X129416500Y-93021253D01*
X129396498Y-93089374D01*
X129384137Y-93105563D01*
X129308957Y-93189059D01*
X129242308Y-93304499D01*
X129190925Y-93353492D01*
X129133189Y-93367499D01*
X126311383Y-93367499D01*
X126243262Y-93347497D01*
X126196769Y-93293841D01*
X126186665Y-93223567D01*
X126191550Y-93202562D01*
X126192527Y-93199556D01*
X126251542Y-93017928D01*
X126271504Y-92828000D01*
X126251542Y-92638072D01*
X126192527Y-92456444D01*
X126097040Y-92291056D01*
X126097038Y-92291054D01*
X126097034Y-92291048D01*
X125969255Y-92149135D01*
X125814752Y-92036882D01*
X125640288Y-91959206D01*
X125453487Y-91919500D01*
X125262513Y-91919500D01*
X125075711Y-91959206D01*
X124901247Y-92036882D01*
X124746744Y-92149135D01*
X124618965Y-92291048D01*
X124618961Y-92291054D01*
X124618960Y-92291056D01*
X124602503Y-92319561D01*
X124552308Y-92406500D01*
X124500925Y-92455493D01*
X124443189Y-92469499D01*
X122174197Y-92469499D01*
X122106076Y-92449497D01*
X122059583Y-92395841D01*
X122049479Y-92325567D01*
X122060002Y-92290249D01*
X122153811Y-92089073D01*
X122153813Y-92089068D01*
X122206082Y-91894000D01*
X120831686Y-91894000D01*
X120847641Y-91878045D01*
X120905165Y-91765148D01*
X120924986Y-91640000D01*
X120905165Y-91514852D01*
X120847641Y-91401955D01*
X120831686Y-91386000D01*
X122206082Y-91386000D01*
X122153813Y-91190931D01*
X122153811Y-91190926D01*
X122057087Y-90983501D01*
X121925815Y-90796025D01*
X121925810Y-90796019D01*
X121763980Y-90634189D01*
X121763974Y-90634184D01*
X121576497Y-90502911D01*
X121536949Y-90484469D01*
X121483665Y-90437551D01*
X121464205Y-90369273D01*
X121484748Y-90301314D01*
X121536950Y-90256081D01*
X121576749Y-90237523D01*
X121764300Y-90106198D01*
X121926198Y-89944300D01*
X122057523Y-89756749D01*
X122154284Y-89549243D01*
X122213543Y-89328087D01*
X122233498Y-89100000D01*
X122213543Y-88871913D01*
X122154284Y-88650757D01*
X122057523Y-88443251D01*
X121926198Y-88255700D01*
X121764300Y-88093802D01*
X121576749Y-87962477D01*
X121537543Y-87944195D01*
X121484258Y-87897279D01*
X121464796Y-87829002D01*
X121485337Y-87761042D01*
X121537543Y-87715805D01*
X121539997Y-87714660D01*
X121576749Y-87697523D01*
X121764300Y-87566198D01*
X121926198Y-87404300D01*
X122057523Y-87216749D01*
X122154284Y-87009243D01*
X122213543Y-86788087D01*
X122233498Y-86560000D01*
X122213543Y-86331913D01*
X122154284Y-86110757D01*
X122057523Y-85903251D01*
X121926198Y-85715700D01*
X121764300Y-85553802D01*
X121764290Y-85553795D01*
X121760372Y-85551051D01*
X121716044Y-85495594D01*
X121708736Y-85424974D01*
X121740768Y-85361614D01*
X121801969Y-85325630D01*
X121819175Y-85322561D01*
X121829093Y-85321494D01*
X121965964Y-85270444D01*
X121965965Y-85270444D01*
X122082904Y-85182904D01*
X122170444Y-85065965D01*
X122222930Y-84925243D01*
X122265476Y-84868407D01*
X122331997Y-84843596D01*
X122401371Y-84858687D01*
G37*
G04 #@! TD.AperFunction*
M02*
