M48
; DRILL file {KiCad 7.0.10} date Tue Apr 16 19:31:03 2024
; FORMAT={-:-/ absolute / metric / decimal}
; #@! TF.CreationDate,2024-04-16T19:31:03+12:00
; #@! TF.GenerationSoftware,Kicad,Pcbnew,7.0.10
; #@! TF.FileFunction,Plated,1,2,PTH
FMAT,2
METRIC
; #@! TA.AperFunction,Plated,PTH,ViaDrill
T1C0.400
; #@! TA.AperFunction,Plated,PTH,ComponentDrill
T2C0.800
%
G90
G05
T1
X113.538Y-76.708
X113.728Y-93.154
X113.958Y-97.506
X114.427Y-83.947
X115.824Y-83.566
X116.205Y-95.631
X116.332Y-97.536
X118.872Y-93.726
X124.333Y-82.931
X125.358Y-92.828
X125.984Y-75.946
X125.984Y-77.724
X126.111Y-95.631
X126.619Y-85.217
X127.508Y-78.359
X127.508Y-80.264
X128.524Y-79.121
X128.903Y-82.423
X129.403Y-77.306
X129.667Y-78.271
X130.048Y-93.726
X131.191Y-78.232
X131.318Y-86.106
X131.318Y-91.948
X131.399Y-80.264
X132.461Y-80.354
X132.588Y-77.38
X133.096Y-86.868
X134.239Y-97.028
X134.493Y-91.948
X134.493Y-86.995
X134.874Y-82.677
X135.128Y-78.105
X135.128Y-79.121
T2
X120.52Y-84.02
X120.52Y-86.56
X120.52Y-89.1
X120.52Y-91.64
X128.14Y-84.02
X128.14Y-86.56
X128.14Y-89.1
X128.14Y-91.64
M30
